<?xml version="1.0" standalone="no"?>
<!DOCTYPE svg PUBLIC "-//W3C//DTD SVG 20010904//EN"
 "http://www.w3.org/TR/2001/REC-SVG-20010904/DTD/svg10.dtd">
<svg version="1.0" xmlns="http://www.w3.org/2000/svg"
 width="731.000000pt" height="731.000000pt" viewBox="0 0 731.000000 731.000000"
 preserveAspectRatio="xMidYMid meet">
<metadata>
Created by potrace 1.11, written by Peter Selinger 2001-2013
</metadata>
<g transform="translate(0.000000,731.000000) scale(0.100000,-0.100000)"
fill="#000000" stroke="none">
<path d="M2746 6781 c-3 -5 -25 -19 -49 -30 -23 -12 -71 -48 -107 -81 -36 -33
-68 -60 -72 -60 -5 0 -8 -6 -8 -13 0 -7 -8 -24 -17 -37 l-18 -25 -6 35 c-5 30
-7 32 -14 15 -5 -11 -23 -34 -40 -52 -17 -17 -46 -53 -64 -80 -31 -44 -32 -46
-7 -23 34 30 41 21 51 -63 5 -50 3 -63 -11 -76 -15 -15 -16 -15 -11 1 4 10 -1
18 -14 21 -16 4 -18 1 -13 -19 7 -27 8 -39 6 -72 -2 -23 -2 -23 -23 -4 -14 14
-22 37 -26 77 -6 60 -22 57 -24 -5 l0 -35 -19 40 c-10 22 -19 35 -19 29 -1 -6
-10 -21 -21 -34 -11 -12 -17 -27 -14 -32 3 -5 11 -2 18 7 10 14 11 11 8 -21
-3 -26 0 -41 11 -49 9 -6 19 -23 22 -37 6 -22 2 -29 -23 -44 -17 -9 -35 -27
-40 -38 -18 -38 -21 -122 -6 -192 15 -72 7 -114 -22 -114 -18 0 -36 -37 -29
-60 10 -32 -31 -37 -109 -13 -12 3 -16 1 -11 -7 4 -7 -1 -13 -14 -17 -51 -13
5 -85 76 -96 l38 -6 1 -53 c1 -29 3 -82 4 -118 2 -36 0 -74 -4 -85 -7 -19 -7
-19 7 -2 14 17 17 17 40 2 35 -23 52 -67 39 -104 -12 -33 -5 -46 14 -30 19 16
34 2 34 -32 0 -34 45 -128 69 -145 56 -40 60 -48 76 -148 20 -126 17 -135 -38
-129 -36 4 -46 1 -67 -22 -23 -25 -25 -33 -23 -118 0 -51 6 -126 12 -167 12
-85 72 -304 97 -353 28 -54 86 -106 138 -126 45 -17 51 -23 63 -62 68 -224
104 -298 210 -429 28 -36 57 -78 62 -94 16 -39 14 -103 -3 -109 -7 -3 -26 -27
-41 -54 -23 -40 -28 -59 -27 -117 0 -37 5 -73 11 -79 8 -8 11 -7 11 3 0 7 3
10 6 7 4 -4 1 -13 -6 -22 -7 -8 -10 -23 -8 -33 3 -12 -2 -23 -13 -31 -18 -11
-26 -51 -13 -64 4 -4 14 2 23 12 14 16 19 17 34 6 10 -7 15 -19 12 -27 -3 -8
-1 -26 4 -40 6 -17 6 -29 -1 -36 -7 -7 -4 -14 11 -24 20 -12 20 -13 -15 -34
-35 -22 -36 -22 -15 -34 12 -6 32 -11 44 -10 49 4 56 0 63 -36 4 -19 14 -38
23 -42 9 -3 27 -14 41 -24 l25 -20 -29 8 c-25 6 -28 4 -23 -10 4 -10 1 -16 -7
-16 -7 0 -19 -7 -26 -15 -7 -8 -21 -15 -31 -15 -21 0 -37 -46 -22 -61 13 -13
83 34 101 67 13 24 32 33 32 14 0 -5 -4 -10 -10 -10 -15 0 -12 -19 5 -37 13
-13 22 -16 55 -22 3 -1 -1 -5 -8 -9 -10 -7 -8 -15 9 -36 18 -23 20 -30 8 -37
-10 -6 -7 -9 12 -9 31 0 52 -22 114 -120 26 -41 51 -77 55 -80 4 -3 18 -25 30
-50 26 -52 131 -187 163 -209 21 -15 21 -15 -1 16 -13 18 -28 46 -33 63 -6 16
-17 30 -24 30 -8 0 -17 5 -21 12 -5 7 -2 9 9 5 11 -4 14 -2 11 8 -3 8 4 22 15
32 20 16 31 50 13 39 -4 -2 -14 -1 -21 4 -11 6 -9 11 8 20 21 11 21 13 7 29
-20 22 -17 98 4 111 13 8 12 10 -2 10 -10 0 -18 5 -18 10 0 20 37 2 92 -45 58
-49 102 -60 190 -47 107 16 142 23 154 33 6 5 14 6 18 2 3 -4 15 -8 26 -10 16
-2 20 6 25 52 7 49 9 53 23 39 14 -15 17 -15 29 2 7 10 13 21 13 25 0 15 -41
20 -56 8 -8 -7 -14 -8 -13 -3 5 29 -3 44 -24 44 -26 0 -47 17 -47 38 0 8 -7
30 -16 50 -9 21 -22 50 -29 66 -9 20 -10 37 -4 54 5 13 7 28 3 33 -3 5 0 9 6
9 15 0 41 26 38 37 -2 5 16 26 40 47 23 21 42 45 42 52 0 8 5 14 11 14 15 0
89 77 89 92 0 10 -2 10 -9 0 -11 -18 -282 -34 -298 -18 -9 9 17 26 37 24 8 -1
32 6 54 15 21 9 55 17 75 18 32 0 33 1 14 9 -13 5 -23 14 -23 21 0 6 -6 9 -14
6 -8 -3 -16 2 -19 14 -3 12 -14 19 -29 20 -76 1 -112 7 -116 17 -2 7 -12 12
-22 12 -10 0 -22 5 -25 10 -3 6 3 10 14 10 41 0 14 39 -28 41 -24 2 -24 2 -3
6 23 5 30 19 11 25 -14 5 0 38 17 38 8 0 14 5 14 10 0 6 -4 10 -10 10 -5 0
-10 5 -10 10 0 6 9 10 20 10 14 0 22 10 28 32 7 27 17 36 68 56 32 13 66 31
74 40 9 9 14 16 11 15 -2 -2 -10 2 -18 8 -10 9 -13 8 -13 -2 0 -11 -2 -11 -12
0 -10 11 -10 14 0 18 6 3 12 18 12 34 0 22 -5 29 -20 29 -11 0 -20 6 -20 14 0
9 17 16 50 21 27 4 50 11 50 16 0 5 7 9 15 9 10 0 15 10 15 30 0 17 5 30 11
30 5 0 8 4 4 10 -9 14 32 50 50 44 8 -4 15 -1 15 5 0 6 3 10 8 10 19 -3 33 2
28 10 -3 5 3 11 14 14 12 3 18 1 14 -5 -4 -6 3 -5 15 1 14 8 21 8 21 1 0 -19
19 -10 64 33 25 23 61 55 81 71 19 16 35 35 35 43 0 7 7 13 15 13 8 0 15 -6
15 -12 0 -7 16 -31 35 -53 39 -44 50 -72 42 -112 -3 -15 -1 -38 4 -51 l9 -25
26 29 c17 20 23 36 19 52 -3 12 -1 31 4 41 6 10 13 51 17 92 7 86 7 83 4 89
-1 3 -2 28 -3 55 -2 56 -25 125 -42 125 -6 0 -11 16 -12 34 -1 43 -51 121 -77
121 -13 0 -20 9 -23 25 -3 24 -52 80 -70 80 -4 0 -21 14 -37 30 -16 16 -33 27
-37 24 -5 -3 -12 1 -15 9 -3 8 -17 14 -32 13 -15 -1 -36 7 -47 17 -10 10 -25
15 -33 12 -7 -3 -20 -5 -27 -5 -27 0 -24 -29 4 -46 42 -25 75 -88 68 -130 -3
-19 -2 -34 4 -34 5 0 9 8 9 18 0 11 6 7 16 -13 9 -17 13 -42 10 -57 -4 -18 -1
-28 6 -28 15 0 68 -61 68 -78 0 -7 18 -30 40 -51 22 -21 40 -45 40 -53 0 -22
-64 -36 -153 -34 -60 2 -80 -1 -84 -11 -3 -9 -12 -11 -22 -8 -13 6 -146 15
-236 17 -17 0 -13 7 21 43 45 46 61 90 36 100 -12 4 -13 8 -3 18 6 6 17 12 24
12 56 2 178 80 163 104 -8 12 -118 -5 -154 -23 -17 -9 -34 -27 -38 -40 -6 -25
-29 -40 -45 -30 -5 3 -9 0 -9 -7 0 -10 -3 -10 -12 -1 -15 15 -19 121 -6 139 6
7 4 14 -5 20 -8 4 -17 25 -20 46 -3 20 -13 44 -21 53 -19 19 -20 26 -3 43 10
10 9 14 -5 22 -10 6 -18 19 -18 29 0 11 -4 20 -8 20 -4 0 -8 17 -9 38 -2 60
-8 110 -15 117 -3 3 3 30 13 59 18 48 18 56 4 82 -8 16 -15 34 -15 40 0 7 -6
14 -14 17 -11 5 -11 18 0 88 8 54 10 87 3 95 -6 7 -4 16 6 24 8 7 15 19 15 28
0 12 3 12 20 -3 12 -11 36 -19 55 -19 19 0 35 -3 35 -7 0 -4 10 -9 22 -12 17
-5 19 -9 9 -20 -9 -12 -8 -16 3 -20 11 -5 12 -13 4 -44 -17 -66 -14 -113 7
-113 8 0 15 -7 15 -15 0 -8 5 -15 10 -15 6 0 10 5 10 11 0 22 20 -4 31 -40 10
-35 14 -38 43 -34 20 2 35 -2 43 -13 7 -9 33 -18 67 -21 31 -3 56 -11 56 -17
0 -7 3 -6 8 2 7 10 17 9 54 -1 33 -10 62 -12 108 -5 35 4 66 11 69 14 8 8 -21
23 -35 17 -20 -8 -27 17 -8 31 17 13 16 14 -4 20 -12 4 -19 12 -16 18 5 7 -5
9 -31 4 -28 -6 -36 -4 -33 6 3 7 21 16 41 19 20 3 43 11 51 18 9 7 22 11 31 8
8 -4 17 -2 21 4 3 5 31 9 62 7 44 -2 57 0 57 11 0 8 -13 19 -30 24 -16 5 -41
18 -55 27 -14 10 -50 26 -80 35 -76 24 -88 40 -25 30 28 -4 59 -8 70 -9 11 -1
36 -10 55 -21 19 -10 39 -18 44 -17 4 2 14 -2 20 -8 21 -17 26 1 6 22 -23 25
-67 48 -91 48 -10 0 -20 4 -23 9 -8 13 -99 41 -122 37 -10 -2 -14 -1 -9 1 6 3
21 18 34 34 l23 30 -23 -2 c-13 -1 -35 -1 -49 1 -20 2 -17 4 15 12 40 9 115
11 190 4 22 -2 47 -4 56 -5 9 0 19 -10 22 -21 3 -11 12 -20 21 -20 20 0 20 4
0 41 -10 21 -12 34 -5 43 13 15 3 30 -34 47 -16 8 -34 24 -40 37 -13 29 -60
42 -153 39 -49 -1 -71 -6 -68 -13 3 -8 -30 -11 -117 -9 -81 1 -122 6 -125 13
-2 7 -12 12 -23 12 -10 0 -19 4 -19 9 0 5 -9 12 -19 16 -11 3 -22 19 -26 35
-6 26 -8 28 -21 16 -8 -8 -14 -23 -14 -33 -1 -17 -1 -17 -11 0 -8 13 -6 21 5
33 18 17 21 28 6 19 -5 -3 -10 1 -10 9 0 19 11 21 28 4 9 -9 12 -9 12 0 0 7
-4 12 -10 12 -5 0 -10 7 -10 15 0 8 7 15 15 15 8 0 15 5 15 10 0 6 -4 10 -10
10 -26 0 -6 19 22 22 27 3 33 8 39 35 6 28 4 30 -12 20 -13 -8 -15 -13 -6 -19
6 -4 9 -9 6 -13 -8 -7 -43 26 -48 45 -14 50 -13 83 3 92 12 7 15 20 11 58 -5
50 1 60 23 38 9 -9 12 -8 12 4 0 9 -9 18 -21 21 -19 5 -20 7 -4 30 11 17 22
23 35 20 14 -4 20 0 20 11 0 9 5 16 10 16 13 0 13 -13 1 -25 -6 -6 -4 -20 4
-35 14 -25 14 -24 15 16 0 32 5 43 24 53 13 8 26 26 30 42 4 21 11 29 26 29
11 0 20 4 20 10 0 5 6 7 14 4 8 -3 31 2 51 12 20 9 50 17 66 16 35 -1 35 21 1
26 -12 2 -22 7 -22 12 0 14 19 22 32 14 19 -12 70 -10 75 3 3 6 10 10 16 8 7
-2 24 -6 38 -9 16 -3 29 -15 32 -27 4 -15 11 -20 22 -15 18 6 68 -22 60 -34
-3 -4 8 -10 23 -13 35 -8 82 -93 76 -136 -4 -22 1 -33 16 -44 19 -13 20 -19
12 -50 -13 -47 2 -115 33 -151 14 -16 25 -36 25 -44 0 -7 6 -28 14 -45 18 -42
28 -69 32 -85 1 -8 9 -21 17 -30 9 -10 20 -59 26 -119 7 -56 21 -133 32 -170
11 -37 26 -93 35 -123 8 -30 18 -57 23 -60 4 -3 11 -29 14 -59 4 -29 11 -59
16 -65 6 -7 10 -44 9 -82 -1 -48 4 -83 17 -115 19 -46 19 -47 -2 -95 -12 -27
-19 -52 -16 -57 8 -13 15 -2 22 35 7 32 8 33 52 30 74 -6 92 28 75 149 -10 68
-39 106 -93 121 -21 5 -41 15 -45 22 -13 19 -8 110 7 130 8 10 12 23 9 27 -3
5 -1 9 5 9 5 0 11 -6 14 -12 3 -8 9 -3 15 12 5 14 12 24 16 23 3 -2 12 -3 19
-3 9 0 9 2 -1 9 -11 7 -11 9 2 14 26 10 27 -8 3 -51 l-22 -41 45 -91 c25 -49
48 -90 53 -90 15 0 6 69 -14 115 -15 34 -19 58 -15 86 8 47 -10 88 -41 95 -13
4 -23 10 -23 15 0 5 -8 6 -17 3 -10 -2 -8 1 4 7 12 6 29 9 37 6 25 -10 53 -65
61 -116 3 -25 13 -70 22 -100 10 -36 14 -83 12 -145 l-4 -91 45 -9 c25 -5 109
-10 187 -13 156 -4 182 2 219 53 55 79 59 81 194 89 114 6 125 5 140 -11 42
-51 83 -61 262 -69 94 -5 99 -4 149 26 43 25 56 28 79 20 16 -5 59 -8 97 -7
66 3 125 -13 140 -37 4 -6 1 -7 -8 -2 -12 8 -12 6 0 -8 7 -9 28 -21 45 -25 30
-8 30 -9 -34 -29 -70 -22 -130 -28 -715 -68 -116 -8 -299 -15 -490 -20 -99 -2
-199 -7 -222 -11 -40 -6 -43 -4 -55 22 -11 28 -12 27 -18 -29 -4 -32 -13 -64
-19 -70 -6 -6 -11 -17 -11 -24 0 -7 -20 -38 -45 -69 l-45 -55 26 -35 c25 -33
54 -45 54 -23 0 6 22 10 53 10 28 -1 84 -1 122 -1 116 -1 164 -19 93 -35 l-33
-7 28 -10 c22 -8 26 -13 16 -24 -6 -8 -18 -14 -25 -14 -8 0 -14 -5 -14 -11 0
-7 -17 -10 -45 -7 -27 2 -45 -1 -45 -7 0 -6 16 -9 39 -7 49 5 73 -8 77 -42 1
-14 5 -34 9 -45 7 -24 -7 -29 -67 -23 l-47 4 -4 41 -4 42 -1 -42 c-2 -40 -4
-43 -31 -43 -27 0 -29 3 -33 45 -2 29 1 45 8 45 17 0 27 31 14 44 -14 14 -135
22 -126 7 4 -6 1 -11 -8 -11 -14 0 -20 11 -17 32 1 11 -59 26 -130 33 l-66 6
-8 -93 c-13 -171 -71 -340 -156 -458 -21 -29 -36 -132 -37 -265 -2 -98 -3 -96
86 -247 116 -197 114 -195 262 -239 36 -11 169 -53 295 -94 367 -119 519 -165
540 -165 18 1 18 2 -4 14 l-24 13 22 15 c11 8 18 18 14 21 -3 4 -1 7 5 7 7 0
12 16 12 38 0 20 10 96 21 167 12 72 25 180 29 240 5 61 9 113 9 116 1 3 10
16 21 29 11 13 20 33 20 46 0 13 4 26 10 29 5 3 17 23 25 43 29 67 47 107 55
122 19 38 21 79 5 109 -8 17 -12 31 -8 31 4 0 -2 6 -13 14 -28 21 -5 44 29 29
28 -13 46 -86 27 -108 -8 -9 -8 -14 0 -17 6 -2 14 -19 18 -38 12 -54 14 -417
4 -490 -6 -38 -6 -88 -1 -118 4 -30 9 -78 10 -107 3 -62 12 -85 25 -64 5 8 9
16 10 19 0 3 4 32 8 65 4 33 12 76 17 95 4 19 11 60 14 90 4 30 10 69 15 85 8
26 29 199 46 373 4 35 13 62 29 79 l23 27 21 -34 c20 -33 22 -46 19 -195 -1
-88 1 -271 6 -406 7 -223 7 -250 -9 -283 -10 -20 -21 -36 -26 -36 -5 0 -17
-16 -26 -35 -14 -29 -15 -40 -4 -73 7 -21 11 -46 9 -57 -2 -14 12 -28 62 -55
73 -41 252 -173 351 -261 61 -54 71 -69 109 -159 23 -55 47 -103 52 -106 8 -5
6 1605 -2 2301 -1 22 2 84 6 137 4 61 2 125 -5 170 -10 62 -9 80 4 117 12 35
15 98 15 326 0 264 -1 284 -19 306 l-19 24 -364 1 c-720 2 -1541 13 -1550 22
-13 13 -28 117 -28 193 0 36 -3 69 -6 72 -4 4 -8 25 -10 47 -5 48 -45 196 -70
255 -9 22 -23 65 -31 95 -7 30 -27 72 -43 92 -34 42 -36 48 -14 48 14 0 14 3
4 15 -9 10 -9 15 -1 15 6 0 11 6 11 13 0 7 9 18 20 25 11 7 20 20 20 30 0 10
11 41 25 70 33 69 43 132 21 132 -10 0 -16 9 -16 25 0 25 -19 36 -21 13 -1 -7
-4 2 -8 21 -8 43 -31 54 -31 14 0 -15 -5 -35 -10 -43 -9 -13 -11 -13 -20 0 -5
8 -10 29 -10 45 0 17 -12 57 -25 90 -14 33 -25 61 -25 63 0 1 10 2 23 2 12 0
29 5 37 10 11 7 4 10 -26 10 -22 0 -44 3 -48 8 -4 4 -11 7 -14 8 -4 0 -20 6
-37 13 -57 24 -141 41 -245 50 -58 5 -133 18 -167 30 -61 20 -135 32 -348 52
-60 6 -121 16 -135 23 -14 8 -50 21 -80 31 -30 10 -59 21 -64 26 -12 10 -117
12 -194 3 -42 -6 -50 -9 -41 -20 6 -8 19 -14 28 -14 14 0 14 -2 1 -10 -24 -15
-40 -12 -33 7 6 15 4 15 -23 1 -40 -21 -96 -40 -114 -40 -8 0 -31 5 -50 11
-114 34 -124 35 -168 12 -46 -24 -82 -27 -82 -8 0 6 -7 3 -16 -8 -15 -19 -15
-18 -9 18 5 24 4 37 -4 37 -6 0 -11 -8 -12 -17 -1 -12 -4 -9 -8 7 -7 26 -34
39 -45 21z m809 -36 c28 -13 56 -25 63 -25 6 0 12 -4 12 -10 0 -13 -65 -23
-107 -17 -45 8 -163 57 -163 69 0 4 33 8 73 8 56 0 83 -6 122 -25z m-575 -35
c0 -5 -9 -10 -21 -10 -11 0 -17 5 -14 10 3 6 13 10 21 10 8 0 14 -4 14 -10z
m-314 -38 c-16 -15 -25 -20 -21 -12 13 25 38 50 44 45 3 -3 -8 -18 -23 -33z
m607 32 c3 -3 3 -12 0 -20 -6 -17 -66 -19 -96 -2 -21 11 -21 11 -2 19 24 9 89
11 98 3z m-512 -45 c-5 -13 -10 -19 -10 -12 -1 15 10 45 15 40 3 -2 0 -15 -5
-28z m290 8 c-13 -13 -26 -3 -16 12 3 6 11 8 17 5 6 -4 6 -10 -1 -17z m-61 4
c0 -14 -18 -23 -30 -16 -6 4 -8 11 -5 16 8 12 35 12 35 0z m370 -7 c0 -2 -19
-4 -42 -3 -35 1 -38 2 -18 8 23 7 60 4 60 -5z m-625 -35 c-4 -5 -16 -9 -28 -9
-21 1 -21 1 -3 15 20 15 41 11 31 -6z m1748 -60 c15 -7 27 -16 27 -21 0 -4 6
-8 14 -8 8 0 18 -5 22 -12 5 -8 2 -9 -10 -5 -14 6 -16 3 -11 -13 4 -12 2 -20
-5 -20 -6 0 -8 5 -5 10 3 6 -3 10 -14 10 -10 0 -43 16 -72 35 -30 19 -63 35
-74 35 -14 0 -16 3 -7 9 16 9 96 -2 135 -20z m-2023 -73 c5 -13 14 -27 19 -31
17 -10 13 -22 -9 -28 -17 -4 -20 -14 -20 -56 0 -28 -4 -51 -9 -51 -11 0 -41
80 -41 111 0 33 22 79 38 79 7 0 17 -11 22 -24z m2117 -16 c12 -31 6 -39 -15
-18 -13 13 -16 48 -4 48 4 0 13 -13 19 -30z m57 -47 c8 -25 -5 -31 -22 -10 -9
11 -17 59 -12 82 2 10 22 -33 34 -72z m-1991 50 c3 -5 0 -19 -5 -33 l-10 -25
-9 23 c-9 24 -5 42 11 42 5 0 11 -3 13 -7z m-143 -113 c0 -16 -4 -30 -10 -30
-5 0 -10 14 -10 30 0 17 5 30 10 30 6 0 10 -13 10 -30z m-240 -150 c0 -5 -2
-10 -4 -10 -3 0 -8 5 -11 10 -3 6 -1 10 4 10 6 0 11 -4 11 -10z m127 -42 c-2
-13 -4 -5 -4 17 -1 22 1 32 4 23 2 -10 2 -28 0 -40z m-77 2 c20 -20 26 -40 13
-40 -14 0 -30 15 -42 38 -15 28 2 29 29 2z m37 -112 c-2 -7 4 -24 14 -37 25
-31 24 -39 -6 -53 -14 -6 -25 -17 -25 -25 0 -7 -7 -13 -15 -13 -8 0 -15 -5
-15 -11 0 -5 -5 -7 -11 -3 -8 5 -8 9 1 14 9 6 8 10 -5 18 -14 7 -17 17 -12 47
7 44 8 46 36 48 13 1 20 6 17 14 -3 7 2 13 10 13 9 0 14 -6 11 -12z m1710
-114 c-3 -3 -12 -4 -19 -1 -8 3 -5 6 6 6 11 1 17 -2 13 -5z m-122 -163 c3 -5
1 -12 -5 -16 -5 -3 -10 1 -10 9 0 18 6 21 15 7z m-105 -42 c0 -5 -7 -9 -15 -9
-15 0 -20 12 -9 23 8 8 24 -1 24 -14z m-1655 -19 c3 -5 2 -10 -4 -10 -5 0 -13
5 -16 10 -3 6 -2 10 4 10 5 0 13 -4 16 -10z m1625 -10 c0 -5 -4 -10 -10 -10
-5 0 -10 5 -10 10 0 6 5 10 10 10 6 0 10 -4 10 -10z m-1733 -86 c-3 -3 -12 -4
-19 -1 -8 3 -5 6 6 6 11 1 17 -2 13 -5z m1743 -10 c0 -21 -18 -54 -30 -54 -16
0 -11 27 6 34 9 4 14 13 10 21 -3 8 -1 15 4 15 6 0 10 -7 10 -16z m31 -49 c-9
-30 -9 -30 -10 10 -1 25 2 36 9 29 6 -6 6 -21 1 -39z m-379 -347 c-9 -9 -12
-7 -12 12 0 19 3 21 12 12 9 -9 9 -15 0 -24z m248 -213 c0 -8 -2 -15 -4 -15
-2 0 -6 7 -10 15 -3 8 -1 15 4 15 6 0 10 -7 10 -15z m2373 -57 c15 -7 27 -21
27 -30 0 -10 6 -18 13 -18 6 -1 25 -12 41 -25 l30 -24 -25 -20 c-13 -11 -44
-23 -69 -26 -25 -4 -56 -10 -70 -13 -14 -4 -38 -7 -55 -7 -29 0 -30 2 -33 54
-2 29 -1 69 3 87 6 33 7 34 58 34 29 0 65 -6 80 -12z m-3578 -298 c3 -5 1 -10
-4 -10 -6 0 -11 5 -11 10 0 6 2 10 4 10 3 0 8 -4 11 -10z m-28 -142 c-3 -8 -6
-5 -6 6 -1 11 2 17 5 13 3 -3 4 -12 1 -19z m687 -103 c-4 -8 -10 -15 -15 -15
-5 0 -9 7 -9 15 0 8 7 15 15 15 9 0 12 -6 9 -15z m36 -20 c0 -19 -8 -28 -36
-40 -48 -20 -67 -19 -81 4 -10 16 -9 22 7 36 17 16 19 15 35 -9 18 -27 35 -34
35 -14 0 9 28 45 38 47 1 1 2 -10 2 -24z m-726 -45 c16 -109 17 -125 7 -110
-6 8 -13 40 -16 70 -4 30 -9 63 -12 74 -3 11 -1 16 5 12 6 -3 13 -24 16 -46z
m1226 -130 c0 -5 -4 -10 -10 -10 -5 0 -10 5 -10 10 0 6 5 10 10 10 6 0 10 -4
10 -10z m2548 -123 c9 -7 11 -22 7 -46 -10 -58 -16 -71 -30 -71 -7 0 -16 -10
-20 -22 -6 -20 -8 -18 -16 17 -19 88 -19 113 -4 129 15 15 38 12 63 -7z m-828
-17 c0 -5 -4 -10 -10 -10 -5 0 -10 5 -10 10 0 6 5 10 10 10 6 0 10 -4 10 -10z
m-3 -46 c-3 -3 -12 -4 -19 -1 -8 3 -5 6 6 6 11 1 17 -2 13 -5z m-1351 -239 c4
-8 10 -12 15 -9 16 9 38 -16 32 -34 -4 -9 -23 -34 -43 -54 -37 -37 -37 -37
-55 -18 -10 11 -21 20 -24 20 -6 0 -18 -27 -36 -75 -7 -19 -7 -19 -18 3 -12
26 -48 30 -67 6 -10 -11 -32 -15 -84 -15 -39 1 -86 1 -103 0 -18 0 -45 6 -60
13 -23 11 -27 19 -25 43 2 17 10 36 17 44 20 21 85 24 106 5 16 -14 18 -14 23
3 12 38 93 65 119 39 13 -14 17 -13 31 9 18 27 45 32 76 13 16 -10 23 -10 37
5 21 21 52 22 59 2z m-486 -126 c0 -11 -7 -19 -16 -19 -11 0 -14 5 -10 16 3 9
6 20 6 25 0 6 5 7 10 4 6 -3 10 -15 10 -26z m1530 -14 c9 -8 21 -15 27 -15 6
0 18 -11 27 -25 20 -30 46 -33 46 -5 0 32 57 62 105 55 62 -9 77 -34 73 -122
-2 -44 1 -73 7 -73 22 0 95 -76 95 -98 0 -13 5 -32 10 -42 6 -11 11 -52 11
-91 1 -39 3 -68 6 -65 10 10 32 -28 33 -56 0 -19 -5 -27 -17 -28 -10 0 -44 -2
-75 -4 l-58 -4 -1 46 c-2 151 -20 221 -62 243 -15 9 -17 13 -6 20 24 14 -35
30 -70 18 -17 -6 -66 -8 -113 -5 -111 7 -118 8 -118 23 0 7 -7 13 -16 13 -8 0
-13 4 -10 9 3 5 -1 11 -9 15 -8 3 -15 14 -15 25 0 11 -4 23 -10 26 -23 14 -3
128 27 158 12 13 94 -1 113 -18z m-1340 -255 c0 -5 -4 -10 -10 -10 -5 0 -10 5
-10 10 0 6 5 10 10 10 6 0 10 -4 10 -10z"/>
<path d="M3090 4375 c0 -8 5 -15 10 -15 6 0 10 7 10 15 0 8 -4 15 -10 15 -5 0
-10 -7 -10 -15z"/>
<path d="M5268 3501 c-22 -22 -23 -31 -3 -31 8 0 15 5 15 11 0 7 10 9 26 5 21
-6 25 -4 22 11 -4 24 -39 27 -60 4z"/>
<path d="M5521 3124 c0 -11 3 -14 6 -6 3 7 2 16 -1 19 -3 4 -6 -2 -5 -13z"/>
<path d="M2325 6570 c3 -5 21 -10 38 -9 27 0 29 2 12 9 -28 12 -57 12 -50 0z"/>
<path d="M4275 5900 c-3 -5 -1 -10 4 -10 6 0 11 5 11 10 0 6 -2 10 -4 10 -3 0
-8 -4 -11 -10z"/>
<path d="M3926 5654 c-4 -9 -4 -19 -1 -22 3 -3 5 0 5 6 0 7 7 12 16 12 8 0 12
5 9 10 -9 15 -22 12 -29 -6z"/>
<path d="M3881 5521 c-1 -27 2 -32 11 -23 8 8 8 17 0 34 -10 22 -11 21 -11
-11z"/>
<path d="M5025 4060 c-4 -6 13 -10 44 -10 28 0 51 5 51 10 0 6 -20 10 -44 10
-25 0 -48 -4 -51 -10z"/>
<path d="M3995 3870 c3 -5 8 -10 11 -10 2 0 4 5 4 10 0 6 -5 10 -11 10 -5 0
-7 -4 -4 -10z"/>
<path d="M4590 2938 c0 -84 -7 -198 -15 -253 -22 -152 -73 -402 -94 -465 -5
-14 -17 -54 -26 -90 -10 -36 -28 -101 -41 -145 -13 -44 -28 -114 -34 -155 -6
-41 -13 -88 -15 -104 -5 -28 -4 -28 32 -21 21 4 55 21 77 38 22 18 50 39 62
47 12 8 34 24 48 34 20 14 30 16 39 7 13 -13 28 -15 26 -3 -4 21 3 32 19 32
14 0 14 2 3 9 -12 8 -12 18 2 68 25 91 66 200 67 176 0 -12 4 -24 9 -27 13 -8
24 25 12 37 -6 6 -5 20 1 38 6 17 7 45 2 67 -4 22 -9 30 -11 20 -5 -19 -23
-25 -23 -8 0 6 6 26 14 44 10 25 11 37 3 45 -7 7 -7 11 -1 11 24 0 5 209 -25
284 -7 16 -9 42 -6 56 5 22 2 28 -14 33 -16 4 -21 13 -21 37 0 18 4 29 10 25
6 -3 10 3 10 13 0 11 -9 22 -19 25 -15 4 -21 -1 -24 -22 -2 -14 -5 8 -5 49 -2
90 -5 111 -26 170 -9 25 -16 53 -16 63 0 9 -4 17 -10 17 -6 0 -10 -58 -10
-152z m129 -407 c0 -12 -2 -12 -9 4 -7 17 -9 16 -9 -9 -1 -44 -15 -21 -16 25
-1 41 0 41 17 19 10 -12 18 -30 17 -39z m11 -231 c0 -5 -5 -10 -11 -10 -5 0
-7 5 -4 10 3 6 8 10 11 10 2 0 4 -4 4 -10z"/>
<path d="M4670 2883 c0 -16 5 -35 10 -43 7 -11 10 -4 10 28 0 23 -4 42 -10 42
-5 0 -10 -12 -10 -27z"/>
<path d="M2612 2693 c-15 -22 -20 -39 -14 -45 6 -6 17 4 31 28 29 48 13 64
-17 17z"/>
<path d="M2707 2712 c-16 -18 -24 -62 -11 -62 11 0 54 54 54 68 0 18 -24 15
-43 -6z"/>
<path d="M2421 2640 c-58 -22 -114 -49 -125 -59 -21 -20 -183 -104 -222 -115
-12 -4 -29 -15 -39 -26 -10 -11 -24 -20 -32 -20 -18 0 -131 -59 -140 -73 -4
-7 0 -8 13 -3 10 4 23 8 29 9 5 1 18 10 28 19 23 20 77 40 77 29 0 -4 -11 -13
-25 -19 -14 -6 -25 -18 -25 -26 0 -16 -27 -29 -41 -20 -5 3 -9 0 -9 -5 0 -6
-7 -11 -15 -11 -9 0 -12 -6 -9 -15 4 -9 0 -15 -9 -15 -22 0 -9 -41 15 -47 11
-4 18 -14 18 -30 0 -18 8 -28 30 -36 17 -6 30 -19 30 -28 0 -13 12 -22 63 -47
4 -2 4 3 1 12 -3 9 -1 16 5 16 6 0 8 7 5 15 -7 18 7 20 24 3 16 -16 15 -28 -3
-28 -20 0 -19 -7 5 -38 21 -25 77 -43 64 -19 -5 8 -3 8 6 0 12 -11 11 -15 -4
-26 -17 -13 -16 -14 10 -28 18 -9 30 -23 32 -39 1 -13 7 -27 12 -30 4 -3 8
-14 7 -25 -1 -14 5 -21 21 -23 23 -4 52 13 52 29 0 14 -17 10 -35 -7 -9 -9
-19 -13 -23 -9 -4 4 3 15 16 25 12 10 22 23 22 29 0 14 34 -20 43 -42 4 -12 1
-17 -11 -17 -15 0 -15 -2 -2 -11 12 -8 10 -9 -9 -4 -17 5 -22 4 -19 -6 5 -14
30 -20 76 -19 13 0 20 -5 17 -10 -3 -6 -1 -10 4 -10 6 0 11 5 11 10 0 6 11 3
25 -6 14 -9 23 -20 20 -24 -3 -4 4 -10 15 -13 12 -3 23 1 28 9 11 20 42 7 42
-17 0 -10 -5 -19 -11 -19 -7 0 -9 -9 -6 -21 4 -16 3 -19 -5 -11 -9 9 -8 18 0
37 10 21 9 25 -4 25 -9 0 -12 -5 -8 -11 5 -9 -1 -10 -20 -5 -24 6 -26 4 -26
-23 0 -16 6 -32 13 -35 10 -5 10 -7 0 -12 -19 -9 -15 -24 4 -17 12 5 10 0 -6
-16 l-22 -22 31 -25 c19 -17 37 -24 47 -19 15 5 15 7 3 15 -20 13 2 13 35 0
22 -9 26 -15 21 -35 -7 -29 -3 -31 19 -9 12 13 19 14 28 5 8 -8 7 -11 -5 -11
-31 0 -39 -25 -17 -49 17 -18 23 -20 37 -9 10 7 14 9 10 4 -4 -5 -3 -17 3 -27
7 -15 6 -19 -5 -19 -8 0 -18 5 -22 11 -5 8 -9 8 -14 -1 -5 -8 -10 -3 -14 14
-3 14 -11 26 -16 26 -14 0 -13 -4 11 -50 20 -39 21 -50 15 -204 -6 -135 -5
-164 7 -169 8 -3 20 -1 28 4 12 8 12 10 0 18 -18 11 -28 125 -13 135 7 4 8 -9
5 -36 -4 -29 -3 -39 5 -34 7 4 12 17 13 29 l0 22 11 -22 c6 -13 16 -23 23 -23
7 0 10 -9 8 -24 -4 -18 -10 -22 -25 -18 -19 4 -19 3 -7 -19 7 -15 14 -19 17
-11 5 16 42 -29 42 -52 0 -22 -27 -9 -33 16 -5 19 -27 17 -27 -2 0 -17 32 -40
56 -40 26 0 31 18 15 49 -6 10 -12 48 -15 85 l-6 67 35 15 c39 16 44 28 18 43
-10 6 -13 11 -6 11 6 0 18 -6 25 -13 7 -8 20 -16 28 -20 12 -4 11 -6 -2 -6
-10 -1 -18 -9 -18 -19 0 -20 47 -92 60 -92 5 0 7 -7 3 -16 -8 -21 33 -53 68
-54 14 0 29 -3 32 -7 13 -12 281 -63 334 -63 28 0 64 5 80 11 15 6 55 15 88
20 33 6 100 23 148 40 49 16 95 29 104 29 9 0 24 6 32 14 9 8 30 17 48 21 31
6 32 5 38 -32 4 -21 11 -51 17 -68 11 -35 51 -293 52 -345 1 -19 9 -46 19 -60
21 -29 21 -28 2 80 -9 47 -20 119 -25 160 -6 41 -15 89 -20 105 -4 17 -11 52
-15 79 -4 27 -10 58 -15 70 -5 11 -11 29 -14 39 -4 12 -10 15 -18 10 -7 -4
-23 -6 -35 -4 -18 2 -21 -1 -17 -14 6 -15 0 -16 -52 -11 -82 7 -85 8 -81 20 2
7 28 10 63 9 40 -1 54 1 44 7 -8 5 -27 10 -42 10 -21 0 -25 4 -21 20 3 11 -2
36 -12 56 l-17 37 -24 -29 c-22 -27 -23 -28 -24 -7 0 12 3 23 8 26 4 2 1 2 -6
0 -8 -1 -20 -3 -27 -3 -8 0 -11 -7 -8 -21 4 -16 2 -20 -8 -17 -8 3 -15 10 -15
16 -1 7 -2 16 -3 21 0 5 -26 17 -56 26 -31 9 -53 20 -50 25 3 5 13 7 23 4 15
-5 15 -4 -1 6 -9 6 -27 8 -39 4 -17 -5 -20 -3 -14 11 5 13 2 16 -9 11 -9 -3
-13 -2 -10 4 3 6 -6 15 -20 20 -19 7 -25 15 -21 26 4 10 -1 22 -10 29 -15 10
-13 13 17 20 27 6 30 9 13 12 -12 2 -24 13 -27 25 -4 14 -11 19 -21 15 -21 -8
-46 2 -46 18 0 6 -9 20 -19 29 -15 13 -20 14 -24 4 -2 -7 -8 -10 -12 -6 -4 4
-2 14 5 23 7 8 10 15 7 15 -7 0 -97 -126 -97 -136 0 -4 -11 -22 -25 -40 -14
-18 -25 -35 -25 -38 0 -3 -16 -26 -35 -52 -19 -25 -33 -50 -30 -55 4 -5 0 -6
-8 -3 -13 5 -37 -52 -37 -90 0 -9 -4 -16 -8 -16 -5 0 -19 -9 -32 -20 -12 -11
-28 -16 -34 -13 -7 5 -5 9 7 11 19 4 23 37 6 47 -6 4 -8 22 -4 46 5 30 4 39
-8 39 -10 0 -16 16 -20 53 -4 29 -13 73 -21 97 -8 25 -22 81 -31 125 -21 96
-84 306 -96 319 -5 6 -9 21 -9 34 0 17 5 22 18 20 25 -4 82 40 82 63 0 30 -28
23 -64 -16 -38 -40 -71 -48 -61 -15 4 12 2 26 -3 33 -6 7 -10 14 -10 17 1 3
-4 28 -11 57 -13 52 -4 93 19 93 6 0 10 16 10 35 0 39 -18 47 -38 15 -22 -35
-39 -22 -66 51 -30 80 -33 109 -11 109 8 0 15 5 15 10 0 6 9 20 20 32 22 24
26 48 9 48 -13 0 -49 -38 -49 -52 0 -4 -4 -8 -8 -8 -10 0 -32 90 -32 130 l0
29 -42 -24 c-23 -13 -47 -21 -52 -18 -6 3 -6 0 1 -7 14 -15 -4 -40 -24 -33
-16 6 -17 -13 -3 -22 6 -4 18 -1 26 6 12 10 13 9 8 -5 -4 -11 -18 -16 -44 -16
-21 0 -40 -3 -43 -7 -2 -5 -2 -2 0 5 1 7 -11 18 -28 24 l-30 10 23 16 c13 9
26 21 30 26 4 6 8 7 8 2 0 -6 6 -2 13 8 12 17 77 45 157 68 40 11 75 38 50 38
-8 0 -62 -19 -119 -40z m-196 -139 c-3 -5 -1 -12 5 -16 7 -4 7 -12 0 -25 -11
-21 2 -36 22 -24 6 4 8 3 5 -3 -10 -15 -58 -13 -84 4 -15 10 -23 11 -23 4 0
-6 5 -11 10 -11 6 0 10 -4 10 -10 0 -6 -9 -6 -25 0 -28 10 -59 2 -62 -17 -3
-15 23 -17 32 -3 4 6 21 9 38 8 33 -2 65 -24 53 -36 -4 -3 -11 0 -15 7 -5 7
-13 11 -19 7 -6 -3 -12 0 -15 6 -3 9 -11 6 -26 -9 -16 -17 -18 -23 -7 -23 8 0
17 4 21 10 8 14 72 -21 86 -47 7 -13 19 -23 26 -23 11 0 11 -4 1 -22 -7 -13
-11 -29 -9 -37 2 -9 -3 -12 -14 -7 -9 3 -28 -2 -42 -11 -14 -9 -35 -18 -47
-18 -55 -3 -67 -6 -62 -13 7 -11 -34 -8 -67 6 -16 7 -45 12 -65 12 -33 1 -35
2 -17 12 19 11 19 11 0 19 -17 6 -16 8 7 8 27 1 48 25 48 53 0 10 -3 9 -10 -2
-7 -12 -12 -12 -22 -2 -9 9 -9 12 5 12 9 0 17 6 18 13 0 6 5 2 11 -10 24 -49
68 -16 73 54 3 45 22 73 50 73 7 0 20 9 30 20 10 11 25 20 34 20 11 0 12 -3 3
-12 -8 -8 -9 -15 -1 -25 15 -18 32 -17 25 2 -6 16 9 65 19 65 4 0 4 -4 0 -9z
m165 -25 c0 -11 -19 -15 -25 -6 -3 5 1 10 9 10 9 0 16 -2 16 -4z m41 -22 c7
-20 6 -38 -5 -68 -8 -23 -17 -53 -20 -68 -4 -16 -10 -27 -14 -26 -11 2 -46
-14 -53 -25 -4 -6 -14 -7 -23 -4 -12 5 -14 12 -6 32 8 22 7 25 -11 25 -15 0
-19 5 -14 19 4 14 -3 22 -32 34 -38 16 -38 16 -8 15 41 -1 75 12 75 28 0 8 8
14 18 15 12 0 13 2 3 6 -8 3 -20 -2 -27 -11 -7 -11 -14 -13 -19 -7 -3 6 -1 16
6 24 14 15 90 10 101 -7 4 -6 8 1 8 17 0 34 8 35 21 1z m-381 -33 c0 -12 -20
-25 -27 -18 -7 7 6 27 18 27 5 0 9 -4 9 -9z m235 -12 c-4 -5 -13 -9 -22 -9
-13 0 -13 3 -3 15 13 15 35 11 25 -6z m-48 -5 c-3 -3 -12 -4 -19 -1 -8 3 -5 6
6 6 11 1 17 -2 13 -5z m63 -108 c0 -3 -4 -8 -10 -11 -5 -3 -10 -1 -10 4 0 6 5
11 10 11 6 0 10 -2 10 -4z m0 -41 c0 -8 -4 -15 -10 -15 -5 0 -10 7 -10 15 0 8
5 15 10 15 6 0 10 -7 10 -15z m22 -70 c48 7 51 6 39 -9 -16 -19 -1 -22 18 -3
11 10 14 10 18 0 3 -7 14 -13 24 -13 11 0 17 -4 14 -10 -3 -5 -19 -10 -35 -10
-16 0 -36 -7 -45 -17 -14 -14 -18 -14 -25 -2 -7 10 -12 11 -21 2 -9 -9 -20 -7
-45 8 -23 13 -34 15 -34 6 0 -9 -20 -11 -72 -9 l-73 4 34 17 c18 10 47 17 65
16 38 -3 69 12 59 28 -4 7 -1 7 10 -1 12 -10 31 -12 69 -7z m114 -67 c5 -8 2
-9 -10 -5 -10 4 -24 1 -33 -9 -8 -8 -18 -12 -22 -9 -7 8 28 35 45 35 7 0 16
-5 20 -12z m-186 -35 c0 -10 -4 -14 -8 -8 -4 6 -11 13 -16 18 -5 4 -2 7 7 7
10 0 17 -8 17 -17z m110 -53 c17 -11 13 -15 -20 -24 -14 -3 -20 -3 -13 0 7 3
9 12 6 20 -6 16 5 18 27 4z m-125 -30 c4 -6 -5 -10 -20 -10 -15 0 -24 4 -20
10 3 6 12 10 20 10 8 0 17 -4 20 -10z m140 -100 c3 -5 1 -10 -4 -10 -6 0 -11
5 -11 10 0 6 2 10 4 10 3 0 8 -4 11 -10z m-30 -10 c3 -5 2 -10 -4 -10 -5 0
-13 5 -16 10 -3 6 -2 10 4 10 5 0 13 -4 16 -10z m95 -130 c0 -5 -2 -10 -4 -10
-3 0 -8 5 -11 10 -3 6 -1 10 4 10 6 0 11 -4 11 -10z m57 -42 c-3 -8 -6 -5 -6
6 -1 11 2 17 5 13 3 -3 4 -12 1 -19z m13 -43 c0 -8 -2 -15 -4 -15 -2 0 -6 7
-10 15 -3 8 -1 15 4 15 6 0 10 -7 10 -15z m140 -81 c0 -2 -12 -4 -26 -4 -14 0
-23 4 -20 9 6 8 46 4 46 -5z m60 -84 c0 -5 -5 -10 -11 -10 -5 0 -7 5 -4 10 3
6 8 10 11 10 2 0 4 -4 4 -10z m-40 -4 c0 -3 -4 -8 -10 -11 -5 -3 -10 -1 -10 4
0 6 5 11 10 11 6 0 10 -2 10 -4z m520 -6 c0 -5 -4 -10 -10 -10 -5 0 -10 5 -10
10 0 6 5 10 10 10 6 0 10 -4 10 -10z m-595 -28 c0 -18 -20 -15 -23 4 -3 10 1
15 10 12 7 -3 13 -10 13 -16z m33 -37 c-6 -13 -15 -22 -19 -19 -11 6 8 44 21
44 6 0 5 -10 -2 -25z m607 -15 c3 -5 -3 -10 -15 -10 -12 0 -18 5 -15 10 3 6
10 10 15 10 5 0 12 -4 15 -10z m-587 -34 c3 -3 -2 -6 -10 -6 -11 0 -14 -6 -11
-19 3 -12 12 -17 29 -15 13 1 26 -1 29 -6 2 -4 -17 -8 -44 -8 l-49 -2 1 34 c1
28 4 32 25 30 13 -1 26 -5 30 -8z m462 -36 c0 -12 -8 -12 -35 0 -18 8 -17 9 8
9 15 1 27 -3 27 -9z m290 0 c0 -5 -8 -10 -17 -10 -15 0 -16 2 -3 10 19 12 20
12 20 0z m-35 -60 c3 -5 1 -10 -4 -10 -6 0 -11 5 -11 10 0 6 2 10 4 10 3 0 8
-4 11 -10z m225 -32 c-1 -28 -2 -30 -11 -15 -6 10 -8 25 -5 33 9 24 16 16 16
-18z m-101 8 c10 -12 8 -13 -8 -9 -12 3 -21 9 -21 14 0 14 16 11 29 -5z m-673
-23 c-10 -10 -19 5 -10 18 6 11 8 11 12 0 2 -7 1 -15 -2 -18z m171 11 c-3 -3
-12 -4 -19 -1 -8 3 -5 6 6 6 11 1 17 -2 13 -5z m413 2 c0 -2 -7 -9 -15 -16
-13 -11 -14 -10 -9 4 5 14 24 23 24 12z m152 -18 c-9 -9 -15 -9 -24 0 -9 9 -7
12 12 12 19 0 21 -3 12 -12z m-732 -22 c0 -3 -4 -8 -10 -11 -5 -3 -10 -1 -10
4 0 6 5 11 10 11 6 0 10 -2 10 -4z m717 -8 c29 -11 33 -16 31 -45 -2 -35 -18
-47 -18 -13 0 27 -32 58 -67 63 -25 4 -25 4 -4 6 14 0 40 -4 58 -11z m-282 -8
c3 -5 1 -10 -4 -10 -6 0 -11 5 -11 10 0 6 2 10 4 10 3 0 8 -4 11 -10z m-350
-10 c3 -5 1 -10 -4 -10 -6 0 -11 5 -11 10 0 6 2 10 4 10 3 0 8 -4 11 -10z
m443 3 c-10 -2 -28 -2 -40 0 -13 2 -5 4 17 4 22 1 32 -1 23 -4z m-128 -43 c0
-5 -5 -10 -11 -10 -5 0 -7 5 -4 10 3 6 8 10 11 10 2 0 4 -4 4 -10z m245 -1 c4
-6 -2 -13 -14 -16 -12 -3 -21 -12 -21 -19 0 -16 -40 -35 -54 -26 -5 3 -1 11 8
18 10 7 15 17 11 23 -3 6 0 9 8 5 8 -3 20 2 27 11 15 18 26 19 35 4z m75 -4
c0 -8 -9 -19 -20 -25 -11 -6 -20 -7 -20 -1 0 5 7 12 16 15 8 3 12 10 9 16 -3
5 -1 10 4 10 6 0 11 -7 11 -15z m-470 -5 c0 -5 -2 -10 -4 -10 -3 0 -8 5 -11
10 -3 6 -1 10 4 10 6 0 11 -4 11 -10z m309 -3 c-2 -1 -13 -9 -24 -17 -19 -14
-19 -14 -6 3 7 9 18 17 24 17 6 0 8 -1 6 -3z m-259 -11 c0 -3 -4 -8 -10 -11
-5 -3 -10 -1 -10 4 0 6 5 11 10 11 6 0 10 -2 10 -4z m171 -40 c7 4 10 1 7 -7
-6 -18 -108 -26 -108 -8 0 8 -5 8 -16 -2 -14 -12 -16 -11 -13 5 5 23 37 30 58
13 11 -9 17 -7 29 12 l16 23 8 -22 c5 -12 13 -18 19 -14z m189 24 c0 -5 -5
-10 -11 -10 -5 0 -7 5 -4 10 3 6 8 10 11 10 2 0 4 -4 4 -10z m-333 -26 c-6 -7
-97 8 -97 16 0 4 23 3 50 -3 28 -5 49 -11 47 -13z m200 13 c10 4 14 2 10 -4
-10 -16 -47 -23 -47 -9 0 17 14 30 18 17 2 -5 10 -7 19 -4z"/>
<path d="M1995 2250 c-3 -5 1 -10 10 -10 9 0 13 5 10 10 -3 6 -8 10 -10 10 -2
0 -7 -4 -10 -10z"/>
<path d="M2150 2239 c0 -5 5 -7 10 -4 6 3 10 8 10 11 0 2 -4 4 -10 4 -5 0 -10
-5 -10 -11z"/>
<path d="M2270 2150 c0 -5 7 -10 16 -10 8 0 12 5 9 10 -3 6 -10 10 -16 10 -5
0 -9 -4 -9 -10z"/>
<path d="M2295 2530 c-3 -5 -1 -10 4 -10 6 0 11 5 11 10 0 6 -2 10 -4 10 -3 0
-8 -4 -11 -10z"/>
<path d="M2800 2521 c0 -10 -7 -24 -15 -31 -20 -17 -19 -40 3 -40 18 0 42 41
42 72 0 10 -7 18 -15 18 -8 0 -15 -8 -15 -19z"/>
<path d="M2667 2503 c-6 -16 -17 -32 -24 -36 -7 -4 -13 -13 -13 -18 0 -6 5 -7
10 -4 6 3 10 1 10 -4 0 -16 26 -13 39 3 7 8 15 30 18 50 5 29 2 36 -11 36 -9
0 -22 -12 -29 -27z"/>
<path d="M4780 2480 c0 -5 7 -10 15 -10 8 0 15 5 15 10 0 6 -7 10 -15 10 -8 0
-15 -4 -15 -10z"/>
<path d="M6080 2468 c0 -7 -3 -23 -6 -34 -4 -14 0 -23 10 -27 13 -5 16 1 16
33 0 22 -4 40 -10 40 -5 0 -10 -6 -10 -12z"/>
<path d="M1783 2317 c-18 -7 -38 -18 -45 -26 -11 -11 -7 -12 22 -6 43 9 70 23
70 35 0 12 -6 12 -47 -3z"/>
<path d="M2780 2277 c-5 -12 -17 -32 -26 -44 -15 -21 -15 -23 1 -29 21 -8 51
21 60 57 9 35 -21 49 -35 16z"/>
<path d="M3012 2265 c-27 -26 -30 -34 -19 -43 11 -10 22 -5 51 23 35 32 41 57
13 54 -7 -1 -27 -16 -45 -34z"/>
<path d="M1705 2270 c-3 -5 1 -10 10 -10 9 0 13 5 10 10 -3 6 -8 10 -10 10 -2
0 -7 -4 -10 -10z"/>
<path d="M2886 2258 c-10 -15 -16 -39 -14 -55 4 -28 4 -28 21 12 23 51 18 81
-7 43z"/>
<path d="M1658 2253 c7 -3 16 -2 19 1 4 3 -2 6 -13 5 -11 0 -14 -3 -6 -6z"/>
<path d="M1611 2236 c-20 -11 -21 -14 -6 -19 26 -11 31 -9 32 13 1 11 1 20 0
20 -1 -1 -13 -7 -26 -14z"/>
<path d="M1746 2238 c5 -8 2 -9 -11 -4 -20 7 -35 -8 -35 -35 0 -19 48 -35 62
-21 10 10 -1 72 -14 72 -5 0 -6 -5 -2 -12z"/>
<path d="M1815 2237 c-4 -10 -5 -21 -1 -24 10 -10 18 4 13 24 -4 17 -4 17 -12
0z"/>
<path d="M3160 2200 c0 -5 5 -10 10 -10 6 0 10 5 10 10 0 6 -4 10 -10 10 -5 0
-10 -4 -10 -10z"/>
<path d="M1501 2161 c-19 -12 4 -24 30 -16 17 6 19 9 8 16 -17 11 -21 11 -38
0z"/>
<path d="M4810 2113 c0 -28 3 -34 10 -23 13 20 13 60 0 60 -5 0 -10 -17 -10
-37z"/>
<path d="M1750 2070 c-14 -4 -35 -5 -46 -3 -31 7 -39 -14 -9 -21 36 -9 127 4
122 18 -5 14 -34 17 -67 6z"/>
<path d="M2984 2038 c-6 -18 -14 -41 -19 -50 -12 -29 20 -22 39 8 18 26 18 65
1 71 -6 2 -15 -12 -21 -29z"/>
<path d="M1433 2053 c-21 -8 -15 -20 16 -33 29 -11 51 -8 51 9 0 6 -46 33 -53
30 -1 0 -8 -3 -14 -6z"/>
<path d="M2877 2053 c-4 -3 -7 -14 -7 -24 0 -10 -9 -24 -21 -33 l-21 -14 20
-11 c17 -9 24 -7 36 11 25 36 19 97 -7 71z"/>
<path d="M3130 2031 c0 -5 -10 -13 -22 -17 -36 -11 -47 -35 -29 -63 8 -12 15
-9 40 18 37 40 49 71 27 71 -9 0 -16 -4 -16 -9z"/>
<path d="M1192 2021 c-10 -6 -7 -10 13 -15 28 -7 49 0 40 15 -8 11 -36 12 -53
0z"/>
<path d="M1973 1953 c-24 -3 -33 -9 -33 -23 0 -15 9 -19 51 -22 57 -3 80 11
59 37 -7 8 -20 14 -29 13 -9 0 -31 -3 -48 -5z"/>
<path d="M985 1930 c-3 -5 1 -10 9 -10 8 0 18 5 21 10 3 6 -1 10 -9 10 -8 0
-18 -4 -21 -10z"/>
<path d="M1530 1914 c-21 -25 1 -36 59 -28 53 7 57 10 42 33 -8 12 -15 13 -33
4 -15 -7 -30 -7 -40 -2 -11 6 -20 4 -28 -7z"/>
<path d="M4790 1890 c0 -19 3 -21 12 -12 9 9 9 15 0 24 -9 9 -12 7 -12 -12z"/>
<path d="M1145 1881 c-3 -5 -1 -12 5 -16 13 -8 50 3 50 16 0 12 -47 12 -55 0z"/>
<path d="M1265 1880 c-3 -5 1 -10 9 -10 8 0 18 5 21 10 3 6 -1 10 -9 10 -8 0
-18 -4 -21 -10z"/>
<path d="M3376 1872 c-3 -4 8 -13 24 -19 27 -10 28 -10 17 8 -12 20 -32 25
-41 11z"/>
<path d="M960 1829 c0 -14 6 -18 22 -16 31 5 33 24 3 29 -19 4 -25 1 -25 -13z"/>
<path d="M3308 1814 c-34 -31 -51 -68 -30 -62 4 1 21 -12 39 -30 36 -37 60
-44 43 -12 -6 11 -8 26 -4 32 4 6 3 8 -3 5 -12 -7 -12 72 0 91 16 24 -8 11
-45 -24z"/>
<path d="M4680 1839 c0 -5 5 -7 10 -4 6 3 10 8 10 11 0 2 -4 4 -10 4 -5 0 -10
-5 -10 -11z"/>
<path d="M4781 1826 c-1 -16 -12 -49 -27 -73 -14 -24 -22 -48 -18 -54 3 -6 -3
-24 -15 -40 -12 -16 -21 -40 -19 -52 2 -16 -2 -22 -17 -23 -11 0 -27 -3 -35
-7 -8 -3 -24 -8 -35 -10 -12 -3 -8 -5 12 -6 17 0 35 4 38 9 4 7 14 6 28 -2 26
-14 27 -14 39 4 8 10 11 11 15 0 4 -10 8 -10 19 -1 10 8 14 9 14 0 0 -8 10 -6
30 4 30 15 39 38 20 50 -5 3 -10 18 -10 32 0 19 -4 24 -16 19 -8 -3 -13 -2 -9
3 3 5 -1 12 -7 15 -7 2 -4 3 7 2 11 -2 28 -7 38 -11 11 -4 29 -2 43 6 14 7 43
12 65 12 35 -2 39 1 39 22 0 32 -13 38 -55 26 -21 -5 -35 -6 -35 0 0 5 8 9 17
9 15 0 14 2 -3 15 -18 14 -17 15 11 9 17 -4 34 -7 40 -8 5 0 19 -12 30 -26 11
-14 23 -26 27 -28 5 -2 8 -10 8 -18 0 -8 3 -14 8 -14 4 0 15 -14 25 -31 10
-18 20 -30 22 -27 8 8 -44 103 -68 126 -40 37 -122 72 -170 72 -27 0 -47 5
-50 13 -3 6 -6 -1 -6 -17z m16 -182 c-3 -3 -12 -4 -19 -1 -8 3 -5 6 6 6 11 1
17 -2 13 -5z"/>
<path d="M4723 1809 c-12 -31 -12 -31 7 -14 11 10 20 24 20 32 0 24 -15 14
-27 -18z"/>
<path d="M2178 1813 c-27 -7 -9 -33 23 -33 16 0 29 4 29 8 0 10 -22 32 -29 31
-4 -1 -14 -3 -23 -6z"/>
<path d="M2963 1813 c-7 -3 -13 -10 -13 -16 0 -6 -10 -21 -21 -34 -20 -20 -20
-23 -5 -29 11 -4 26 2 42 16 34 33 32 75 -3 63z"/>
<path d="M2120 1790 c0 -21 24 -28 35 -10 3 6 1 10 -5 10 -6 0 -8 5 -5 10 3 6
-1 10 -9 10 -9 0 -16 -9 -16 -20z"/>
<path d="M1350 1791 c0 -18 21 -23 67 -16 33 5 42 9 32 16 -19 12 -99 12 -99
0z"/>
<path d="M1740 1786 c0 -13 12 -16 56 -16 73 0 70 24 -4 28 -42 2 -52 0 -52
-12z"/>
<path d="M2815 1789 c-4 -5 -18 -14 -31 -19 -31 -12 -35 -60 -5 -60 19 0 61
55 61 79 0 14 -17 14 -25 0z"/>
<path d="M3061 1772 c-23 -33 -28 -72 -8 -72 18 0 53 78 40 91 -7 7 -17 2 -32
-19z"/>
<path d="M709 1760 l-24 -19 33 -1 c25 0 32 4 32 20 0 25 -11 25 -41 0z"/>
<path d="M3449 1761 c17 -31 33 -37 29 -10 -2 13 -11 25 -21 27 -16 3 -17 1
-8 -17z"/>
<path d="M988 1759 c-22 -12 -23 -29 -3 -29 34 0 115 23 109 31 -7 12 -85 11
-106 -2z"/>
<path d="M4690 1759 c0 -5 5 -7 10 -4 6 3 10 8 10 11 0 2 -4 4 -10 4 -5 0 -10
-5 -10 -11z"/>
<path d="M4510 1679 c-77 -66 -114 -116 -125 -166 -5 -26 -3 -33 8 -33 10 0
13 7 10 19 -7 28 92 150 153 186 15 10 40 55 29 55 -2 0 -36 -27 -75 -61z"/>
<path d="M3389 1728 c-7 -24 -4 -40 13 -54 16 -15 21 -16 28 -5 9 16 2 42 -14
53 -11 8 -25 10 -27 6z"/>
<path d="M3480 1710 c0 -5 5 -10 10 -10 6 0 10 5 10 10 0 6 -4 10 -10 10 -5 0
-10 -4 -10 -10z"/>
<path d="M1615 1690 c-4 -6 15 -10 49 -10 31 0 56 5 56 10 0 6 -22 10 -49 10
-28 0 -53 -4 -56 -10z"/>
<path d="M1230 1681 c-22 -4 -36 -12 -38 -23 -3 -15 4 -18 40 -18 24 0 53 3
65 6 19 5 20 9 10 25 -12 20 -19 21 -77 10z"/>
<path d="M1975 1670 c3 -5 26 -10 51 -10 24 0 44 5 44 10 0 6 -23 10 -51 10
-31 0 -48 -4 -44 -10z"/>
<path d="M2370 1670 c0 -5 5 -10 10 -10 6 0 10 5 10 10 0 6 -4 10 -10 10 -5 0
-10 -4 -10 -10z"/>
<path d="M526 1634 c-21 -14 -36 -27 -34 -29 2 -1 17 0 35 2 21 3 35 12 39 25
9 30 1 30 -40 2z"/>
<path d="M919 1636 c-2 -3 -17 -7 -32 -10 -37 -7 -47 -14 -47 -37 0 -23 9 -24
37 -4 12 8 27 13 35 10 18 -7 53 19 44 33 -7 12 -29 16 -37 8z"/>
<path d="M650 1617 c0 -18 72 -16 78 1 2 8 -10 12 -37 12 -28 0 -41 -4 -41
-13z"/>
<path d="M2507 1614 c6 -15 23 -19 23 -5 0 5 -7 11 -14 14 -10 4 -13 1 -9 -9z"/>
<path d="M3307 1614 c-15 -15 -6 -34 22 -49 19 -9 32 -11 36 -5 3 6 17 10 31
10 17 0 24 5 24 20 0 11 -3 20 -7 21 -5 0 -28 3 -53 5 -25 3 -49 2 -53 -2z"/>
<path d="M4850 1605 c0 -8 4 -15 10 -15 5 0 7 7 4 15 -4 8 -8 15 -10 15 -2 0
-4 -7 -4 -15z"/>
<path d="M5014 1605 c-3 -7 -4 -24 -2 -37 2 -19 8 -23 34 -20 l32 3 7 -79 c10
-117 26 -126 21 -12 -3 52 -5 108 -5 123 -1 18 -6 27 -13 24 -7 -2 -26 0 -41
4 -20 6 -30 4 -33 -6z"/>
<path d="M2470 1606 c0 -15 49 -66 54 -58 3 5 -8 22 -24 37 -17 16 -30 25 -30
21z"/>
<path d="M1840 1583 c-44 -6 -57 -17 -40 -38 9 -11 16 -13 24 -5 5 5 27 10 48
10 26 0 38 4 38 14 0 11 -27 31 -33 24 -1 0 -18 -3 -37 -5z"/>
<path d="M2214 1579 c-2 -4 13 -9 34 -13 51 -8 62 -8 62 3 0 10 -90 20 -96 10z"/>
<path d="M1107 1564 c-3 -4 -21 -9 -39 -13 -24 -5 -33 -12 -33 -26 0 -24 25
-23 81 0 31 13 34 17 24 30 -13 16 -23 19 -33 9z"/>
<path d="M1517 1564 c-3 -3 -21 -7 -39 -8 -23 -1 -34 -7 -36 -20 -3 -14 0 -17
12 -13 9 4 16 3 16 -1 0 -9 78 -8 87 2 8 8 -8 38 -23 43 -6 2 -13 1 -17 -3z"/>
<path d="M2872 1532 c-18 -19 -29 -39 -25 -43 12 -12 53 1 53 16 0 7 7 18 15
25 18 15 20 40 3 39 -7 -1 -28 -17 -46 -37z"/>
<path d="M3030 1556 c0 -8 -12 -24 -26 -35 -25 -20 -25 -41 0 -41 15 0 56 54
56 75 0 8 -7 15 -15 15 -8 0 -15 -6 -15 -14z"/>
<path d="M3590 1546 c0 -12 8 -30 19 -40 17 -15 19 -15 31 0 17 19 4 43 -28
55 -19 7 -22 5 -22 -15z"/>
<path d="M4540 1551 c0 -5 7 -12 16 -15 14 -5 15 -4 4 9 -14 17 -20 19 -20 6z"/>
<path d="M484 1514 c-17 -14 -17 -15 -1 -10 10 3 23 6 28 6 5 0 9 5 9 10 0 14
-13 12 -36 -6z"/>
<path d="M4125 1510 c-4 -6 -12 -10 -18 -9 -31 4 -38 -2 -35 -28 3 -25 9 -29
58 -38 50 -9 57 -14 73 -48 11 -24 24 -37 36 -37 11 0 26 -3 35 -6 11 -4 16
-1 16 10 0 9 5 16 10 16 6 0 10 -4 10 -10 0 -5 7 -7 15 -4 9 4 15 19 15 35 0
26 2 29 20 19 16 -8 18 -8 14 5 -4 8 1 17 10 21 25 10 19 24 -6 16 -28 -9 -52
-8 -103 3 -22 5 -43 8 -47 7 -5 -1 -8 3 -8 8 0 5 -6 10 -14 10 -7 0 -25 9 -39
20 -29 23 -33 24 -42 10z m40 -50 c3 -5 -1 -10 -9 -10 -8 0 -18 5 -21 10 -3 6
1 10 9 10 8 0 18 -4 21 -10z"/>
<path d="M3661 1494 c0 -11 3 -14 6 -6 3 7 2 16 -1 19 -3 4 -6 -2 -5 -13z"/>
<path d="M341 1478 c-5 -13 -12 -31 -15 -41 -3 -10 -10 -16 -15 -13 -35 22
-189 -295 -168 -346 4 -8 8 -5 12 10 9 26 20 28 29 5 4 -11 1 -22 -8 -29 -8
-6 -16 -27 -18 -46 -1 -26 -6 -34 -16 -31 -9 4 -12 15 -8 32 4 18 -1 13 -14
-14 -10 -22 -19 -49 -19 -61 -1 -11 -6 -25 -13 -32 -9 -9 -9 -12 0 -12 7 0 12
5 12 10 0 6 7 10 15 10 8 0 19 9 25 21 15 27 23 19 14 -15 -3 -14 -10 -23 -15
-20 -5 3 -16 -2 -25 -10 -9 -9 -20 -14 -25 -11 -5 4 -9 -12 -9 -34 0 -32 3
-39 15 -35 8 4 15 1 15 -5 0 -7 -7 -14 -15 -17 -13 -5 -15 -33 -14 -168 1 -96
4 -151 9 -136 4 14 8 71 9 127 1 91 3 104 21 115 11 7 20 23 20 36 0 14 -4 21
-11 17 -6 -4 -8 -14 -5 -22 3 -8 2 -12 -3 -8 -5 3 -12 -1 -14 -7 -3 -7 -6 -4
-6 7 0 24 23 58 33 47 9 -8 45 38 46 58 0 8 9 21 20 28 11 7 20 18 19 25 0 9
-2 9 -6 0 -2 -7 -13 -13 -24 -13 -20 0 -26 15 -9 25 6 3 7 17 4 31 -4 14 -2
24 5 24 6 0 11 -12 11 -26 0 -16 5 -24 13 -21 6 2 11 10 9 16 -3 17 19 13 33
-6 11 -15 12 -14 8 12 -3 17 -11 33 -17 37 -7 4 -4 9 6 13 9 4 15 12 13 18 -6
17 22 50 34 42 18 -10 42 20 28 34 -9 9 -9 16 1 31 6 11 12 29 12 40 0 28 18
25 31 -4 9 -18 8 -33 0 -57 -16 -46 -14 -59 9 -59 19 0 21 5 18 60 -2 33 -6
60 -10 60 -5 0 -8 7 -8 15 0 8 -6 15 -12 15 -7 0 -5 5 5 11 9 6 14 15 11 21
-4 6 -3 8 3 5 6 -4 8 -18 5 -33 -4 -24 -3 -25 16 -15 11 6 25 11 31 11 12 0 7
-55 -10 -124 -5 -23 -11 -61 -13 -86 -2 -25 -11 -99 -20 -165 -11 -76 -15
-136 -10 -165 4 -25 6 -53 5 -62 -1 -9 4 -18 11 -21 7 -2 1 -3 -14 -1 -24 3
-58 -17 -58 -33 0 -3 10 -22 22 -41 19 -31 22 -33 29 -16 7 17 8 16 9 -6 2
-14 1 -29 0 -35 -8 -29 -5 -182 3 -193 8 -10 5 -15 -11 -19 -22 -5 -31 -23
-12 -23 6 0 10 -7 10 -16 0 -8 14 -29 30 -46 17 -16 30 -36 30 -43 0 -8 5 -17
10 -20 6 -3 10 -15 10 -26 0 -14 7 -19 25 -19 14 0 25 -5 25 -11 0 -5 -4 -7
-10 -4 -5 3 -10 -1 -10 -9 0 -14 21 -16 150 -16 83 0 150 4 150 8 0 4 -5 13
-12 20 -9 9 -7 12 10 12 15 0 24 8 28 25 7 27 24 31 55 14 19 -10 20 -8 17 23
-2 20 -10 36 -23 43 -44 22 -84 57 -91 78 -4 12 -12 25 -18 29 -6 4 -7 11 -2
15 5 4 11 2 13 -4 3 -7 9 -13 14 -13 13 0 11 34 -2 47 -8 8 -4 15 12 27 13 9
18 16 11 16 -10 0 -9 4 0 21 11 17 10 22 -4 30 -23 13 -24 41 -1 32 13 -5 15
-2 10 11 -4 10 -7 20 -7 22 0 2 -11 4 -25 4 -18 0 -23 -4 -19 -15 4 -8 2 -15
-4 -15 -15 0 -24 33 -11 41 9 5 9 15 -1 39 -11 26 -11 33 0 40 10 6 8 13 -9
31 -17 18 -21 32 -18 56 4 25 2 31 -9 26 -10 -4 -12 0 -7 13 5 13 3 15 -7 9
-8 -5 -11 -3 -8 5 7 23 22 21 42 -6 15 -21 16 -30 7 -50 -9 -20 -7 -28 10 -45
17 -17 23 -19 30 -8 5 9 2 16 -11 21 -22 8 -16 48 7 48 8 0 11 -4 8 -10 -3 -5
-1 -10 4 -10 17 0 13 -51 -5 -71 -9 -10 -14 -23 -12 -30 7 -20 38 38 40 75 3
33 4 34 20 16 10 -11 15 -25 12 -33 -3 -8 -1 -18 5 -22 6 -3 11 1 11 9 0 24 1
30 11 48 6 11 5 21 -4 30 -23 24 -55 83 -50 95 2 6 -13 27 -33 47 -34 33 -35
36 -14 36 12 0 33 12 46 28 19 21 24 23 24 10 0 -10 5 -18 11 -18 5 0 8 4 4 9
-3 5 -1 12 5 16 15 9 12 25 -5 25 -21 0 -34 30 -41 96 -4 33 -12 62 -18 66 -7
5 -3 13 12 23 12 9 22 24 22 33 0 13 8 17 27 16 29 -1 41 -21 42 -69 1 -34 31
-146 69 -255 41 -120 36 -151 -29 -159 -7 -1 -9 -13 -5 -35 7 -38 -6 -55 -29
-36 -10 9 -15 7 -20 -9 -8 -26 1 -42 19 -35 8 3 16 -4 19 -16 6 -22 -30 -70
-52 -70 -7 0 -10 -4 -7 -9 3 -4 16 -6 29 -4 13 3 28 -2 35 -9 11 -14 26 -113
24 -160 -1 -15 3 -30 9 -33 5 -4 7 -10 4 -15 -3 -5 6 -44 19 -87 14 -43 26
-89 28 -103 l3 -25 131 -3 c108 -2 133 0 144 13 7 8 21 15 31 15 24 0 24 12 0
34 -12 11 -27 15 -39 12 -26 -9 -38 10 -41 64 -2 25 -7 52 -12 62 -5 9 -9 32
-8 50 0 18 -2 45 -6 61 -9 32 12 67 26 45 6 -10 12 -8 23 7 20 28 5 50 -35 50
l-33 0 -19 105 c-10 58 -20 125 -21 150 -1 25 -10 58 -21 73 -10 16 -19 41
-21 55 -2 32 -18 100 -36 160 -10 34 -10 46 0 60 20 27 25 42 18 50 -4 3 -11
1 -15 -7 -7 -10 -10 -9 -14 3 -4 9 -13 16 -21 16 -8 0 -26 20 -40 45 -15 25
-31 45 -36 45 -6 0 -10 7 -10 15 0 9 -12 18 -30 21 -24 5 -29 10 -24 28 2 11
-2 30 -10 41 -14 19 -15 17 -16 -32 0 -48 -2 -52 -35 -72 -19 -11 -42 -18 -50
-15 -15 6 -20 -14 -15 -61 1 -15 -1 -17 -10 -8 -7 6 -19 9 -26 6 -17 -6 -19
13 -1 21 9 5 9 7 -1 12 -18 8 -42 58 -42 87 0 13 -3 26 -6 29 -10 10 -44 -4
-44 -18 0 -8 -11 -19 -24 -26 -21 -9 -24 -16 -19 -39 4 -22 2 -29 -11 -29 -9
0 -16 8 -16 19 0 10 -6 24 -14 30 -8 6 -20 26 -27 44 -7 18 -22 41 -33 52 -15
15 -21 33 -21 66 0 54 -36 109 -84 129 -17 7 -28 16 -25 21 3 5 0 9 -6 9 -6 0
-14 -10 -19 -22z m14 -18 c3 -5 1 -10 -4 -10 -6 0 -11 5 -11 10 0 6 2 10 4 10
3 0 8 -4 11 -10z m115 -200 c12 20 44 -15 35 -38 -5 -11 -9 -13 -12 -5 -3 10
-9 10 -23 0 -29 -17 -46 3 -29 34 8 17 14 20 17 10 4 -11 6 -11 12 -1z m-283
-112 c-3 -8 -6 -5 -6 6 -1 11 2 17 5 13 3 -3 4 -12 1 -19z m481 5 c-3 -17 15
-43 26 -37 6 3 3 -1 -6 -9 -10 -8 -18 -19 -18 -26 0 -6 -2 -11 -3 -11 -11 0
-67 32 -67 38 1 15 26 40 45 45 11 2 21 5 23 6 1 0 1 -2 0 -6z m-431 -45 c-3
-8 -6 -5 -6 6 -1 11 2 17 5 13 3 -3 4 -12 1 -19z m337 6 c9 -8 16 -22 16 -29
0 -15 39 -41 54 -37 5 2 5 -3 -1 -10 -5 -7 -10 -28 -11 -47 -3 -43 -8 -51 -33
-51 -14 0 -19 7 -19 25 0 16 -6 25 -16 25 -8 0 -12 4 -9 10 3 5 -1 30 -10 55
-8 25 -15 52 -15 60 0 20 25 19 44 -1z m138 -56 c-3 -11 1 -18 10 -18 7 0 15
-11 16 -25 2 -24 0 -25 -39 -21 -49 6 -51 8 -43 30 4 10 13 15 21 11 12 -4 14
1 11 19 -4 19 -1 24 12 23 11 -1 15 -7 12 -19z m58 -13 c0 -8 -4 -17 -10 -20
-6 -4 -10 5 -10 20 0 15 4 24 10 20 6 -3 10 -12 10 -20z m20 -92 c0 -16 -35
-43 -57 -43 -18 0 -24 5 -21 18 2 11 12 17 31 16 15 -1 27 3 27 7 0 5 5 9 10
9 6 0 10 -3 10 -7z m-134 -51 c6 -4 14 -20 18 -36 4 -16 18 -43 32 -61 21 -29
23 -36 13 -59 -13 -28 -24 -33 -35 -15 -4 8 -9 7 -16 -2 -6 -10 -7 -7 -3 8 3
13 3 28 -1 35 -4 7 -9 22 -10 33 -1 12 -12 38 -23 58 -12 21 -21 40 -21 42 0
8 34 5 46 -3z m348 -328 c9 -22 0 -30 -18 -15 -9 8 -16 8 -20 2 -4 -5 2 -14
11 -20 24 -14 10 -14 -22 1 -24 11 -32 28 -18 41 13 14 61 7 67 -9z m-7 -76
c-12 -18 -20 -16 -23 5 -1 7 6 13 16 13 14 0 15 -4 7 -18z m-274 -3 c-3 -9 -8
-14 -10 -11 -3 3 -2 9 2 15 9 16 15 13 8 -4z m307 -45 c0 -5 -4 -10 -10 -10
-5 0 -10 5 -10 10 0 6 5 10 10 10 6 0 10 -4 10 -10z m15 -80 c3 -5 1 -10 -4
-10 -6 0 -11 5 -11 10 0 6 2 10 4 10 3 0 8 -4 11 -10z m45 -100 c0 -5 -2 -10
-4 -10 -3 0 -8 5 -11 10 -3 6 -1 10 4 10 6 0 11 -4 11 -10z m-575 -30 c3 -5
-1 -10 -10 -10 -9 0 -13 5 -10 10 3 6 8 10 10 10 2 0 7 -4 10 -10z m-58 -36
c-3 -3 -12 -4 -19 -1 -8 3 -5 6 6 6 11 1 17 -2 13 -5z m313 -64 c0 -11 -5 -22
-12 -26 -8 -5 -9 -2 -5 10 4 10 1 19 -8 22 -8 4 -13 10 -10 15 9 14 35 -2 35
-21z m-190 -65 c0 -12 -19 -12 -23 0 -4 9 -1 12 9 8 7 -3 14 -7 14 -8z"/>
<path d="M4565 1470 c-15 -28 -35 -41 -35 -21 0 4 -12 6 -26 3 -16 -3 -30 1
-35 9 -6 10 -9 10 -9 2 0 -7 -6 -13 -13 -13 -6 0 -18 -14 -26 -31 -8 -18 -25
-35 -42 -41 -16 -5 -29 -14 -29 -19 0 -5 -7 -9 -15 -9 -8 0 -15 -4 -15 -10 0
-16 28 -12 52 8 12 9 40 34 62 55 21 20 42 37 45 36 3 0 22 -6 41 -13 25 -10
41 -10 58 -3 17 8 29 7 45 -2 18 -12 23 -11 39 9 30 37 20 54 -39 64 -40 6
-43 4 -58 -24z"/>
<path d="M3320 1469 c0 -5 5 -7 10 -4 6 3 10 8 10 11 0 2 -4 4 -10 4 -5 0 -10
-5 -10 -11z"/>
<path d="M2471 1454 c7 -8 6 -14 -3 -17 -7 -3 -1 -6 15 -6 24 -1 26 1 16 17
-7 10 -18 19 -25 19 -10 0 -11 -4 -3 -13z"/>
<path d="M3552 1443 c-10 -23 -10 -30 4 -43 13 -13 15 -13 12 0 -4 18 48 23
74 6 13 -8 21 -7 29 1 15 15 3 32 -37 49 -48 20 -67 17 -82 -13z"/>
<path d="M4850 1451 c0 -23 25 -73 32 -65 14 13 69 12 82 -1 13 -13 15 -13 18
3 4 17 -17 60 -37 74 -5 4 -29 8 -52 8 -36 0 -43 -3 -43 -19z"/>
<path d="M5061 1454 c0 -11 3 -14 6 -6 3 7 2 16 -1 19 -3 4 -6 -2 -5 -13z"/>
<path d="M557 1440 c-14 -11 -32 -20 -41 -20 -10 0 -16 -9 -16 -25 0 -32 4
-31 43 5 18 17 40 33 50 36 9 3 15 10 12 15 -9 14 -20 11 -48 -11z"/>
<path d="M737 1435 c-35 -24 -51 -65 -26 -65 30 0 105 63 94 80 -10 16 -28 12
-68 -15z"/>
<path d="M1287 1453 c-17 -17 -2 -23 53 -23 67 0 80 14 23 24 -49 8 -68 8 -76
-1z"/>
<path d="M2395 1450 c-7 -11 22 -26 32 -16 4 3 0 6 -8 6 -11 0 -11 2 1 10 13
8 13 10 -2 10 -9 0 -20 -5 -23 -10z"/>
<path d="M2088 1443 c-30 -3 -38 -9 -38 -24 0 -14 7 -19 28 -18 23 0 24 2 8 8
-18 7 -18 8 5 14 35 10 49 8 49 -4 0 -6 -7 -8 -17 -5 -17 7 -17 6 0 -11 15
-16 19 -16 27 -3 13 20 8 45 -10 46 -8 0 -32 -1 -52 -3z"/>
<path d="M1675 1412 c-13 -13 -3 -21 25 -19 16 1 30 5 30 8 0 9 -48 18 -55 11z"/>
<path d="M1620 1402 c0 -5 9 -12 21 -15 13 -3 19 -1 16 6 -5 15 -37 22 -37 9z"/>
<path d="M3482 1390 c-12 -5 -29 -7 -37 -4 -9 4 -15 0 -15 -8 0 -9 14 -14 42
-15 27 -1 38 1 29 6 -11 7 -10 11 5 20 23 13 8 13 -24 1z"/>
<path d="M3730 1392 c0 -19 22 -27 62 -23 l43 4 -45 13 c-53 16 -60 17 -60 6z"/>
<path d="M4620 1394 c0 -15 137 -57 153 -47 6 3 -10 12 -34 20 -59 18 -119 32
-119 27z"/>
<path d="M4770 1396 c0 -2 7 -7 16 -10 8 -3 12 -2 9 4 -6 10 -25 14 -25 6z"/>
<path d="M3580 1384 c0 -3 7 -12 15 -20 16 -17 18 -14 9 10 -6 15 -24 23 -24
10z"/>
<path d="M908 1373 c-30 -3 -38 -8 -38 -25 0 -18 4 -20 31 -14 17 3 47 6 65 6
32 0 33 1 22 20 -7 11 -20 19 -28 18 -8 -1 -32 -3 -52 -5z"/>
<path d="M3530 1370 c0 -5 5 -10 10 -10 6 0 10 5 10 10 0 6 -4 10 -10 10 -5 0
-10 -4 -10 -10z"/>
<path d="M3647 1363 c-13 -22 -18 -73 -7 -73 8 0 10 -9 6 -24 -5 -22 -2 -25
34 -31 21 -4 44 -3 51 0 6 4 15 1 20 -6 7 -11 9 -11 9 -1 0 7 5 10 11 6 11 -6
7 26 -8 79 -8 29 -28 13 -26 -22 1 -20 -3 -31 -10 -28 -7 2 -10 12 -9 22 3 16
1 17 -12 6 -14 -12 -16 -10 -16 9 0 13 -3 21 -6 17 -11 -11 -34 21 -28 37 6
16 -1 22 -9 9z"/>
<path d="M4160 1354 c0 -20 17 -44 32 -44 15 0 8 27 -12 45 -19 18 -20 17 -20
-1z"/>
<path d="M5111 1332 c-1 -32 -1 -32 -42 -26 -39 7 -41 6 -37 -17 3 -21 10 -25
58 -31 30 -3 56 -5 58 -3 2 2 -3 18 -11 37 -9 18 -18 42 -20 53 -3 12 -5 8 -6
-13z"/>
<path d="M1473 1326 c2 -6 28 -12 58 -14 67 -4 55 13 -14 21 -33 3 -47 1 -44
-7z"/>
<path d="M4241 1323 c7 -10 15 -20 16 -22 2 -2 3 5 3 17 0 14 -6 22 -16 22
-14 0 -15 -3 -3 -17z"/>
<path d="M4295 1330 c-3 -5 -1 -10 4 -10 6 0 11 5 11 10 0 6 -2 10 -4 10 -3 0
-8 -4 -11 -10z"/>
<path d="M4780 1329 c0 -5 5 -7 10 -4 6 3 10 8 10 11 0 2 -4 4 -10 4 -5 0 -10
-5 -10 -11z"/>
<path d="M754 1324 c-7 -3 -8 -22 -3 -57 4 -28 8 -60 8 -69 1 -11 6 -15 16
-12 17 7 21 74 5 74 -13 0 -13 27 1 32 5 2 7 11 4 21 -7 17 -12 19 -31 11z"/>
<path d="M4830 1321 c17 -10 150 -41 174 -41 9 0 16 4 16 8 0 8 -158 43 -190
42 -13 -1 -13 -2 0 -9z"/>
<path d="M3878 1313 c-45 -5 -58 -30 -29 -55 15 -11 17 -18 9 -21 -8 -3 -6 -6
5 -6 10 -1 31 13 47 29 31 32 40 61 18 58 -7 -1 -29 -3 -50 -5z"/>
<path d="M4370 1296 c0 -2 7 -9 15 -16 13 -11 14 -10 9 4 -5 14 -24 23 -24 12z"/>
<path d="M1143 1272 c-35 -11 -43 -19 -43 -38 0 -18 5 -24 23 -24 13 0 28 5
35 12 6 6 22 13 34 15 32 5 34 11 12 31 -17 17 -23 17 -61 4z"/>
<path d="M2230 1271 c0 -10 7 -21 15 -25 18 -7 20 5 3 22 -9 9 -8 12 4 12 9 0
18 -5 20 -11 4 -12 54 -16 64 -6 8 8 -5 27 -17 27 -6 0 -7 -4 -4 -10 3 -5 -1
-10 -9 -10 -8 0 -18 5 -21 10 -3 6 -17 10 -31 10 -17 0 -24 -6 -24 -19z"/>
<path d="M4260 1279 c0 -5 5 -7 10 -4 6 3 10 8 10 11 0 2 -4 4 -10 4 -5 0 -10
-5 -10 -11z"/>
<path d="M1845 1270 c3 -5 10 -10 16 -10 5 0 9 5 9 10 0 6 -7 10 -16 10 -8 0
-12 -4 -9 -10z"/>
<path d="M1918 1263 c7 -3 16 -2 19 1 4 3 -2 6 -13 5 -11 0 -14 -3 -6 -6z"/>
<path d="M1765 1180 c3 -5 8 -10 11 -10 2 0 4 5 4 10 0 6 -5 10 -11 10 -5 0
-7 -4 -4 -10z"/>
<path d="M4121 1176 c-9 -10 -8 -16 4 -26 20 -16 38 -1 29 23 -8 21 -18 22
-33 3z"/>
<path d="M1800 1170 c0 -5 7 -10 15 -10 8 0 15 5 15 10 0 6 -7 10 -15 10 -8 0
-15 -4 -15 -10z"/>
<path d="M1377 1159 c-10 -6 -21 -8 -24 -5 -12 11 -31 -15 -26 -34 5 -19 33
-29 33 -12 0 4 12 15 25 25 18 13 23 14 19 4 -4 -11 1 -13 21 -9 25 4 25 5 9
23 -19 21 -31 23 -57 8z m-7 -23 c0 -2 -7 -6 -15 -10 -8 -3 -15 -1 -15 4 0 6
7 10 15 10 8 0 15 -2 15 -4z"/>
<path d="M3980 1156 c0 -2 11 -6 25 -8 14 -3 25 -1 25 3 0 5 -11 9 -25 9 -14
0 -25 -2 -25 -4z"/>
<path d="M2070 1140 c0 -6 23 -10 52 -10 62 0 60 5 -4 13 -29 4 -48 3 -48 -3z"/>
<path d="M2515 1130 c-3 -5 -1 -10 4 -10 6 0 11 5 11 10 0 6 -2 10 -4 10 -3 0
-8 -4 -11 -10z"/>
<path d="M5258 1113 c7 -3 16 -2 19 1 4 3 -2 6 -13 5 -11 0 -14 -3 -6 -6z"/>
<path d="M1553 998 c-2 -48 9 -70 24 -44 9 16 43 24 60 13 20 -13 42 3 39 29
-4 37 -22 49 -74 49 l-47 0 -2 -47z"/>
<path d="M282 984 c-1 -33 2 -44 13 -44 10 0 15 10 15 29 0 16 2 35 3 43 2 7
2 9 -1 5 -2 -4 -9 -3 -16 2 -9 7 -12 -2 -14 -35z"/>
<path d="M1910 1020 c0 -5 5 -10 11 -10 5 0 7 5 4 10 -3 6 -8 10 -11 10 -2 0
-4 -4 -4 -10z"/>
<path d="M2348 1003 c7 -3 16 -2 19 1 4 3 -2 6 -13 5 -11 0 -14 -3 -6 -6z"/>
<path d="M2400 1000 c0 -5 5 -10 10 -10 6 0 10 5 10 10 0 6 -4 10 -10 10 -5 0
-10 -4 -10 -10z"/>
<path d="M2662 998 c2 -6 10 -14 16 -16 7 -2 10 2 6 12 -7 18 -28 22 -22 4z"/>
<path d="M2745 1000 c-3 -5 1 -10 9 -10 9 0 16 5 16 10 0 6 -4 10 -9 10 -6 0
-13 -4 -16 -10z"/>
<path d="M3160 989 c0 -5 5 -7 10 -4 6 3 10 8 10 11 0 2 -4 4 -10 4 -5 0 -10
-5 -10 -11z"/>
<path d="M3960 990 c0 -5 5 -10 11 -10 5 0 7 5 4 10 -3 6 -8 10 -11 10 -2 0
-4 -4 -4 -10z"/>
<path d="M1245 950 c-3 -5 -20 -10 -36 -10 -33 0 -48 -22 -29 -44 10 -13 18
-12 56 4 24 11 46 20 49 20 3 0 8 0 12 0 3 0 -2 9 -12 20 -20 22 -31 25 -40
10z"/>
<path d="M1590 939 c0 -5 5 -7 10 -4 6 3 10 8 10 11 0 2 -4 4 -10 4 -5 0 -10
-5 -10 -11z"/>
<path d="M1625 930 c-3 -5 -1 -10 4 -10 6 0 11 5 11 10 0 6 -2 10 -4 10 -3 0
-8 -4 -11 -10z"/>
<path d="M1680 919 c0 -5 5 -7 10 -4 6 3 10 8 10 11 0 2 -4 4 -10 4 -5 0 -10
-5 -10 -11z"/>
<path d="M257 900 c4 -13 0 -26 -8 -32 -12 -8 -11 -9 1 -5 18 5 26 35 11 50
-7 7 -8 3 -4 -13z"/>
<path d="M1714 875 c-12 -8 -24 -12 -27 -9 -11 11 -28 -37 -21 -59 l7 -22 8
22 c6 16 14 21 26 17 10 -3 7 1 -6 9 -23 14 -23 15 -5 19 26 5 79 -48 78 -79
-1 -18 -1 -19 3 -3 2 11 8 20 13 20 5 0 12 9 15 20 3 11 13 20 21 20 19 0 18
25 -2 44 -19 20 -83 21 -110 1z"/>
<path d="M2490 872 c0 -12 19 -26 26 -19 2 2 -2 10 -11 17 -9 8 -15 8 -15 2z"/>
<path d="M195 834 c1 -19 9 -42 17 -51 8 -10 17 -24 20 -32 3 -12 69 -41 96
-41 6 0 12 11 12 25 0 20 -6 27 -30 32 -16 3 -30 9 -30 14 0 5 -9 9 -20 9 -23
0 -27 18 -5 26 8 4 12 10 9 15 -3 5 -10 7 -15 4 -5 -4 -9 -2 -9 3 0 5 -10 13
-23 19 -21 10 -23 8 -22 -23z m125 -94 c0 -5 -7 -7 -15 -4 -8 4 -15 8 -15 10
0 2 7 4 15 4 8 0 15 -4 15 -10z"/>
<path d="M2530 860 c0 -5 5 -10 11 -10 5 0 7 5 4 10 -3 6 -8 10 -11 10 -2 0
-4 -4 -4 -10z"/>
<path d="M1587 834 c-3 -17 1 -33 10 -42 13 -13 14 -10 7 24 -9 49 -10 51 -17
18z"/>
<path d="M3000 850 c-13 -8 -12 -10 3 -10 9 0 17 5 17 10 0 12 -1 12 -20 0z"/>
<path d="M1505 840 c-3 -5 -17 -10 -30 -10 -24 0 -35 -16 -28 -37 3 -9 17 -11
44 -7 29 5 39 3 39 -7 1 -18 40 28 40 46 0 22 -53 34 -65 15z"/>
<path d="M1625 840 c-3 -5 -1 -10 4 -10 6 0 11 5 11 10 0 6 -2 10 -4 10 -3 0
-8 -4 -11 -10z"/>
<path d="M6470 840 c0 -9 39 -25 45 -18 2 2 -7 8 -21 15 -13 6 -24 7 -24 3z"/>
<path d="M876 795 c-3 -10 -1 -25 6 -34 7 -9 9 -13 4 -9 -11 9 -46 -9 -46 -23
0 -6 5 -7 10 -4 6 4 17 1 25 -5 8 -6 19 -9 25 -5 6 4 17 1 25 -5 12 -10 15 -9
15 4 0 9 -9 21 -20 28 -11 7 -20 20 -20 28 0 8 -4 21 -9 28 -6 11 -10 10 -15
-3z"/>
<path d="M1727 804 c8 -4 10 -17 7 -37 l-6 -32 16 29 c18 31 14 46 -12 45 -10
0 -12 -3 -5 -5z"/>
<path d="M1693 765 c0 -8 4 -15 9 -15 4 0 8 7 8 15 0 8 -4 15 -8 15 -5 0 -9
-7 -9 -15z"/>
<path d="M1650 755 c0 -8 5 -15 10 -15 6 0 10 7 10 15 0 8 -4 15 -10 15 -5 0
-10 -7 -10 -15z"/>
<path d="M2322 728 c2 -12 10 -24 18 -26 13 -5 13 -3 2 11 -8 9 -11 21 -7 27
3 5 1 10 -5 10 -6 0 -10 -10 -8 -22z"/>
<path d="M2390 746 c0 -2 7 -7 16 -10 8 -3 12 -2 9 4 -6 10 -25 14 -25 6z"/>
<path d="M1620 724 c0 -10 -6 -14 -14 -11 -26 10 -27 -33 -1 -59 13 -13 21
-24 17 -25 -4 0 2 -4 13 -9 20 -8 19 -9 -1 -9 -12 -1 -27 6 -34 14 -10 12 -16
13 -24 5 -8 -8 -7 -13 4 -20 13 -8 12 -11 -5 -24 -20 -15 -19 -16 5 -13 14 1
28 7 33 12 4 6 10 6 15 -3 12 -17 55 25 47 45 -4 13 -3 14 10 3 19 -16 19 -40
0 -40 -20 0 -19 -17 3 -40 16 -18 18 -18 40 0 23 19 29 40 12 40 -5 0 -15 10
-21 23 -11 20 -11 21 4 8 14 -11 18 -11 23 3 3 9 1 22 -5 30 -9 11 -6 12 13 9
22 -5 23 -6 10 -31 -18 -34 -17 -39 2 -46 11 -4 15 -2 11 8 -3 8 1 17 10 20 9
4 13 9 10 13 -4 3 -2 12 4 20 9 10 8 13 -4 13 -8 0 -20 7 -28 16 -7 8 -21 13
-31 11 -10 -3 -18 -2 -18 3 0 14 -31 20 -49 11 -22 -12 -43 1 -35 22 3 10 1
17 -5 17 -6 0 -11 -7 -11 -16z"/>
<path d="M1767 720 c-3 -13 0 -20 9 -20 8 0 14 9 14 20 0 11 -4 20 -9 20 -5 0
-11 -9 -14 -20z"/>
<path d="M1947 722 c-20 -4 -22 -35 -3 -51 10 -9 16 -8 26 4 10 12 9 15 -6 15
-13 0 -15 3 -7 11 8 8 19 6 42 -7 24 -14 33 -16 43 -6 26 26 -31 46 -95 34z
m78 -22 c3 -5 1 -10 -4 -10 -6 0 -11 5 -11 10 0 6 2 10 4 10 3 0 8 -4 11 -10z"/>
<path d="M130 695 c0 -15 6 -25 14 -25 19 0 28 14 20 34 -10 25 -34 19 -34 -9z"/>
<path d="M3090 700 c0 -5 5 -10 11 -10 5 0 7 5 4 10 -3 6 -8 10 -11 10 -2 0
-4 -4 -4 -10z"/>
<path d="M3475 690 c3 -5 8 -10 11 -10 2 0 4 5 4 10 0 6 -5 10 -11 10 -5 0 -7
-4 -4 -10z"/>
<path d="M4318 688 c9 -9 15 -9 24 0 9 9 7 12 -12 12 -19 0 -21 -3 -12 -12z"/>
<path d="M1308 613 c-36 -6 -54 -28 -38 -48 7 -8 16 -12 22 -9 5 3 5 11 -2 19
-9 11 0 12 51 8 l61 -6 -18 22 c-18 21 -24 22 -76 14z m29 -19 c-3 -3 -12 -4
-19 -1 -8 3 -5 6 6 6 11 1 17 -2 13 -5z"/>
<path d="M3897 550 c8 -113 36 -292 62 -395 16 -63 2 94 -16 180 -8 39 -16 97
-18 130 -1 33 -6 68 -10 79 -5 10 -12 32 -16 50 -5 19 -6 2 -2 -44z"/>
<path d="M1768 563 c-11 -3 -18 -14 -18 -28 0 -23 28 -30 42 -10 4 5 10 6 14
2 4 -4 0 -15 -8 -24 -22 -25 -28 -61 -13 -67 8 -3 11 -13 8 -25 -3 -13 -1 -21
7 -21 8 0 11 9 8 25 -3 14 -1 25 5 25 5 0 7 9 4 21 -4 14 -2 19 8 15 7 -2 16
-2 20 2 4 4 19 7 33 7 22 0 28 5 30 28 3 27 2 29 -35 27 -21 -1 -54 -1 -73 -1
-33 2 -34 2 -16 16 20 15 16 17 -16 8z"/>
<path d="M2227 563 c-3 -5 4 -17 14 -27 19 -19 24 -12 13 18 -6 17 -20 21 -27
9z"/>
<path d="M3000 566 c0 -2 8 -10 18 -17 15 -13 16 -12 3 4 -13 16 -21 21 -21
13z"/>
<path d="M2150 534 c0 -22 3 -25 23 -20 12 3 30 6 40 6 22 0 22 16 0 24 -9 4
-20 1 -25 -6 -6 -10 -8 -8 -8 5 0 9 -7 17 -15 17 -10 0 -15 -10 -15 -26z"/>
<path d="M1573 536 c7 -18 -21 -43 -53 -48 -31 -4 -37 -31 -12 -55 11 -10 18
-25 16 -33 -2 -8 -7 -28 -10 -45 -4 -16 -13 -37 -20 -46 -8 -9 -11 -19 -7 -24
5 -4 -5 -5 -21 -1 -17 4 -48 2 -73 -6 -35 -10 -43 -17 -41 -33 2 -12 12 -21
27 -23 15 -2 21 0 17 7 -5 7 6 11 32 11 40 0 46 -9 30 -50 -16 -39 -41 -126
-45 -156 l-5 -34 154 0 153 0 18 41 c10 22 15 45 11 51 -4 5 -1 14 6 18 20 12
1 32 -23 24 -19 -6 -20 -5 -8 9 8 10 10 24 6 34 -4 10 -8 27 -9 38 -1 27 -36
33 -36 6 0 -12 -4 -21 -9 -21 -6 0 -4 17 3 37 9 24 19 37 30 37 9 -1 13 2 10
7 -3 5 5 9 18 9 13 0 29 5 36 12 9 9 12 9 12 0 0 -7 10 -16 23 -21 23 -9 37 2
36 29 0 10 -3 8 -8 -5 -8 -19 -8 -19 -15 3 -5 15 -13 21 -22 18 -8 -3 -20 3
-26 14 -8 12 -17 16 -27 11 -9 -5 -30 -9 -47 -9 -28 -1 -30 2 -26 29 5 33 -3
36 -29 13 -11 -10 -19 -12 -24 -5 -3 6 1 11 9 11 20 0 20 29 1 55 -10 12 -13
30 -9 52 5 26 3 33 -10 33 -9 0 -16 5 -16 10 0 6 -5 10 -11 10 -6 0 -9 -6 -6
-14z m17 -136 c0 -5 -2 -10 -4 -10 -3 0 -8 5 -11 10 -3 6 -1 10 4 10 6 0 11
-4 11 -10z m20 -235 c0 -9 -9 -15 -21 -15 -18 0 -19 2 -9 15 7 8 16 15 21 15
5 0 9 -7 9 -15z"/>
<path d="M2920 540 c0 -6 7 -10 15 -10 8 0 15 2 15 4 0 2 -7 6 -15 10 -8 3
-15 1 -15 -4z"/>
<path d="M3425 540 c-3 -5 -1 -10 4 -10 6 0 11 5 11 10 0 6 -2 10 -4 10 -3 0
-8 -4 -11 -10z"/>
<path d="M810 536 c0 -2 7 -9 15 -16 13 -11 14 -10 9 4 -5 14 -24 23 -24 12z"/>
<path d="M5370 520 c0 -5 5 -10 11 -10 5 0 7 5 4 10 -3 6 -8 10 -11 10 -2 0
-4 -4 -4 -10z"/>
<path d="M4430 509 c0 -5 5 -7 10 -4 6 3 10 8 10 11 0 2 -4 4 -10 4 -5 0 -10
-5 -10 -11z"/>
<path d="M4160 500 c0 -6 7 -10 15 -10 8 0 15 2 15 4 0 2 -7 6 -15 10 -8 3
-15 1 -15 -4z"/>
<path d="M843 485 c-3 -9 -3 -18 -1 -21 3 -3 8 4 11 16 6 23 -1 27 -10 5z"/>
<path d="M1630 479 c0 -5 5 -7 10 -4 6 3 10 8 10 11 0 2 -4 4 -10 4 -5 0 -10
-5 -10 -11z"/>
<path d="M1752 470 c0 -14 2 -19 5 -12 2 6 2 18 0 25 -3 6 -5 1 -5 -13z"/>
<path d="M130 444 c-6 -14 -10 -37 -10 -51 0 -21 2 -24 15 -13 9 7 27 10 45 6
27 -5 30 -3 30 20 0 14 -4 22 -10 19 -5 -3 -21 5 -35 19 l-26 26 -9 -26z"/>
<path d="M2472 390 c14 -22 24 -19 15 5 -4 8 -11 15 -17 15 -6 0 -6 -7 2 -20z"/>
<path d="M2403 393 c9 -2 23 -2 30 0 6 3 -1 5 -18 5 -16 0 -22 -2 -12 -5z"/>
<path d="M3251 384 c0 -11 3 -14 6 -6 3 7 2 16 -1 19 -3 4 -6 -2 -5 -13z"/>
<path d="M2012 373 c-32 -4 -33 -5 -15 -20 16 -13 16 -14 1 -9 -11 3 -18 0
-18 -9 0 -21 22 -30 34 -14 6 8 23 13 39 11 25 -3 28 0 25 20 -3 24 -13 27
-66 21z"/>
<path d="M1780 361 c0 -5 7 -12 16 -15 8 -3 13 -2 9 3 -3 5 1 12 7 14 7 3 3 6
-9 6 -13 1 -23 -3 -23 -8z"/>
<path d="M2408 363 c7 -3 16 -2 19 1 4 3 -2 6 -13 5 -11 0 -14 -3 -6 -6z"/>
<path d="M4525 350 c3 -5 8 -10 11 -10 2 0 4 5 4 10 0 6 -5 10 -11 10 -5 0 -7
-4 -4 -10z"/>
<path d="M77 284 c-16 -60 -17 -87 -1 -72 12 13 35 121 27 129 -5 5 -17 -20
-26 -57z"/>
<path d="M256 215 c-11 -29 -7 -37 17 -34 29 3 80 -11 90 -25 4 -6 6 2 5 19
-2 24 -8 30 -25 29 -12 0 -20 3 -17 8 3 4 -1 8 -8 8 -7 0 -23 3 -34 6 -14 4
-23 0 -28 -11z"/>
<path d="M3340 220 c0 -5 5 -10 11 -10 5 0 7 5 4 10 -3 6 -8 10 -11 10 -2 0
-4 -4 -4 -10z"/>
<path d="M2290 211 c0 -5 6 -12 13 -15 6 -3 2 -3 -10 0 -13 3 -23 1 -23 -5 0
-6 -10 -11 -22 -11 -21 0 -21 0 -2 15 19 14 19 14 -3 15 -12 0 -24 -4 -27 -8
-10 -17 11 -30 54 -33 40 -4 45 -1 48 17 2 12 -4 24 -12 27 -9 4 -16 2 -16 -2z"/>
<path d="M3075 210 c-3 -5 -1 -10 4 -10 6 0 11 5 11 10 0 6 -2 10 -4 10 -3 0
-8 -4 -11 -10z"/>
<path d="M2565 200 c3 -5 11 -10 16 -10 6 0 7 5 4 10 -3 6 -11 10 -16 10 -6 0
-7 -4 -4 -10z"/>
<path d="M2648 203 c7 -3 16 -2 19 1 4 3 -2 6 -13 5 -11 0 -14 -3 -6 -6z"/>
<path d="M4830 190 c0 -5 5 -10 10 -10 6 0 10 5 10 10 0 6 -4 10 -10 10 -5 0
-10 -4 -10 -10z"/>
<path d="M1855 183 c-27 -7 -45 -23 -45 -39 0 -18 53 -40 58 -25 2 6 12 11 23
11 24 0 27 45 3 54 -9 3 -16 5 -17 5 -1 -1 -11 -4 -22 -6z"/>
<path d="M74 85 c-4 -8 -12 -15 -20 -15 -9 0 -14 -11 -14 -30 0 -29 0 -30 19
-11 19 19 69 18 82 -2 8 -11 29 -1 29 14 0 5 -5 8 -12 6 -7 -1 -12 3 -13 10 0
14 -35 42 -53 43 -7 0 -15 -7 -18 -15z"/>
<path d="M3965 48 c7 -43 12 -55 18 -47 8 9 -6 89 -15 89 -6 0 -7 -17 -3 -42z"/>
<path d="M901 64 c0 -11 3 -14 6 -6 3 7 2 16 -1 19 -3 4 -6 -2 -5 -13z"/>
<path d="M2778 64 c-8 -7 3 -44 13 -44 4 0 11 5 14 10 3 6 1 10 -5 10 -7 0
-10 7 -6 15 5 15 -5 21 -16 9z"/>
<path d="M2827 63 c-11 -10 -8 -33 3 -33 6 0 10 6 10 14 0 8 8 17 18 19 14 4
13 5 -4 6 -11 0 -24 -2 -27 -6z"/>
<path d="M2384 51 c-8 -9 -4 -40 7 -47 6 -3 16 -1 22 5 8 8 6 11 -6 11 -9 0
-17 5 -17 11 0 7 17 10 45 7 27 -2 44 1 42 7 -3 9 -84 14 -93 6z"/>
<path d="M3168 43 c7 -3 16 -2 19 1 4 3 -2 6 -13 5 -11 0 -14 -3 -6 -6z"/>
<path d="M3568 43 c7 -3 16 -2 19 1 4 3 -2 6 -13 5 -11 0 -14 -3 -6 -6z"/>
<path d="M3618 43 c7 -3 16 -2 19 1 4 3 -2 6 -13 5 -11 0 -14 -3 -6 -6z"/>
<path d="M4415 30 c3 -5 10 -10 16 -10 5 0 9 5 9 10 0 6 -7 10 -16 10 -8 0
-12 -4 -9 -10z"/>
<path d="M2055 22 c-65 -5 -66 -22 -2 -22 31 0 57 4 57 9 0 14 -11 17 -55 13z"/>
<path d="M388 3 c6 -2 18 -2 25 0 6 3 1 5 -13 5 -14 0 -19 -2 -12 -5z"/>
</g>
</svg>
