<?xml version="1.0" standalone="no"?>
<!DOCTYPE svg PUBLIC "-//W3C//DTD SVG 20010904//EN"
 "http://www.w3.org/TR/2001/REC-SVG-20010904/DTD/svg10.dtd">
<svg version="1.0" xmlns="http://www.w3.org/2000/svg"
 width="1215.000000pt" height="1215.000000pt" viewBox="0 0 1215.000000 1215.000000"
 preserveAspectRatio="xMidYMid meet">
<metadata>
Created by potrace 1.11, written by Peter Selinger 2001-2013
</metadata>
<g transform="translate(0.000000,1215.000000) scale(0.100000,-0.100000)"
fill="#000000" stroke="none">
<path d="M6525 11111 c6 -11 3 -13 -13 -9 -16 4 -19 2 -15 -10 4 -10 2 -13 -5
-8 -7 4 -17 -3 -24 -19 -8 -19 -14 -22 -21 -13 -6 9 -7 6 -4 -10 5 -20 3 -21
-10 -11 -12 11 -14 10 -11 -5 2 -12 -4 -20 -14 -21 -10 -2 -17 0 -17 3 4 25
-3 34 -11 15 -8 -21 -42 -34 -39 -15 5 27 -1 34 -18 21 -11 -10 -14 -10 -9 -1
4 6 3 12 -3 12 -5 0 -12 -8 -14 -17 -4 -17 -5 -17 -6 0 0 10 -5 15 -11 12 -5
-3 -10 -1 -10 4 0 6 -4 11 -10 11 -5 0 -6 -7 -3 -17 4 -10 2 -14 -4 -10 -6 4
-14 0 -17 -9 -5 -14 -9 -14 -24 -3 -15 13 -16 12 -4 -3 8 -10 9 -19 3 -22 -5
-3 -12 0 -14 6 -4 8 -6 7 -6 -4 -1 -9 5 -18 12 -21 6 -2 -4 -4 -23 -5 -19 0
-36 -6 -38 -11 -2 -6 -8 -9 -13 -5 -5 3 -9 0 -9 -6 0 -8 -6 -7 -21 1 -12 6
-19 7 -15 1 8 -14 -19 -23 -32 -10 -8 8 -9 5 -5 -11 3 -12 1 -21 -6 -21 -6 0
-11 5 -11 10 0 6 -9 10 -20 10 -11 0 -20 -4 -20 -9 0 -14 -27 -7 -49 13 -11
10 -25 15 -30 11 -6 -3 -14 1 -17 9 -3 9 -12 16 -20 16 -8 0 -14 5 -14 11 0 5
-5 7 -10 4 -6 -4 -8 -11 -5 -16 3 -5 -1 -6 -9 -3 -9 3 -14 10 -11 14 3 4 -4
10 -15 13 -11 3 -20 0 -20 -6 0 -8 -4 -7 -9 2 -7 11 -9 11 -14 0 -4 -12 -7
-11 -16 1 -6 8 -11 10 -11 4 0 -7 -8 -11 -17 -10 -10 0 -17 -5 -15 -12 1 -8
-2 -11 -8 -7 -6 3 -8 10 -5 15 3 5 0 12 -6 16 -7 4 -9 3 -6 -3 4 -6 -1 -17
-10 -24 -13 -11 -15 -11 -9 -1 5 9 3 12 -5 11 -8 -2 -24 2 -36 9 -16 9 -24 9
-29 0 -4 -7 -3 -8 4 -4 7 4 12 2 12 -4 0 -6 5 -8 12 -4 6 4 8 3 5 -3 -3 -5
-20 -8 -38 -5 -22 3 -30 1 -25 -7 4 -6 1 -11 -9 -11 -10 0 -13 5 -9 12 4 7 3
8 -5 4 -9 -6 -9 -11 1 -24 8 -10 9 -13 1 -9 -7 4 -16 0 -22 -10 -6 -10 -11
-12 -11 -5 0 6 -5 12 -11 12 -6 0 -9 -6 -6 -14 3 -8 -1 -17 -9 -20 -23 -9 -26
-7 -19 7 4 6 -1 3 -9 -7 -9 -11 -16 -16 -16 -10 0 5 -5 2 -10 -6 -6 -9 -10
-10 -10 -3 0 14 -40 13 -40 -2 0 -5 -5 -3 -10 5 -8 12 -10 12 -11 -5 0 -19 -1
-19 -8 -1 -7 17 -8 17 -24 2 -9 -10 -17 -14 -17 -10 0 3 -8 0 -17 -7 -9 -8
-14 -9 -10 -3 4 7 0 14 -8 18 -8 3 -14 0 -12 -7 1 -7 -6 -11 -17 -9 -10 2 -29
-7 -43 -20 -13 -12 -30 -23 -36 -24 -34 -3 -38 -5 -31 -15 5 -8 9 -8 14 1 4 7
10 8 13 3 3 -5 -3 -15 -15 -22 -11 -7 -17 -8 -14 -3 3 6 -1 12 -9 15 -10 4
-12 1 -8 -10 5 -12 3 -14 -8 -8 -11 7 -11 5 1 -10 9 -11 10 -16 3 -11 -7 4
-13 2 -13 -3 0 -6 -4 -11 -10 -11 -5 0 -7 8 -4 18 5 16 5 16 -6 -1 -6 -9 -8
-23 -4 -30 5 -7 0 -6 -12 3 -10 8 -16 10 -12 6 4 -5 -5 -20 -20 -32 -26 -23
-37 -28 -54 -25 -5 0 -8 -7 -8 -17 -1 -15 -2 -15 -15 2 -13 18 -14 17 -10 -13
2 -18 0 -29 -6 -25 -5 3 -7 10 -4 15 11 16 -7 10 -22 -8 -8 -10 -12 -13 -10
-8 7 14 -20 38 -28 25 -4 -6 -11 -7 -17 -4 -7 5 -9 2 -6 -8 5 -11 0 -14 -18
-10 -13 2 -21 8 -18 13 3 5 -2 6 -11 3 -10 -4 -12 -10 -6 -18 6 -7 3 -16 -7
-26 -14 -13 -15 -13 -10 1 4 9 1 16 -7 16 -8 0 -12 -9 -9 -21 3 -21 3 -21 -11
-2 -14 19 -15 18 -11 -12 2 -18 1 -30 -2 -27 -9 8 -32 -17 -25 -28 3 -6 1 -7
-6 -3 -9 6 -9 11 -1 21 8 9 8 15 0 20 -5 3 -10 5 -11 3 -7 -30 -10 -45 -11
-55 -1 -13 -18 -17 -48 -13 -11 1 -9 -3 5 -15 11 -9 15 -14 9 -11 -6 3 -20 -1
-30 -10 -18 -14 -18 -15 6 -8 l25 7 -27 -26 c-15 -14 -24 -28 -21 -31 3 -3 0
-13 -8 -23 -12 -15 -12 -16 1 -9 8 4 6 0 -4 -8 -14 -12 -16 -16 -5 -16 8 0 1
-9 -16 -20 -16 -11 -25 -20 -19 -20 5 0 14 4 20 10 6 6 10 3 10 -9 0 -12 -5
-17 -14 -13 -8 3 -19 -2 -24 -12 -5 -9 -14 -14 -20 -10 -5 4 -4 -4 3 -17 11
-22 11 -23 -4 -10 -12 9 -17 10 -17 2 0 -7 -4 -9 -10 -6 -5 3 -10 1 -10 -4 0
-6 5 -11 10 -11 6 0 10 -5 10 -10 0 -7 -7 -7 -17 -2 -13 6 -24 2 -40 -15 -23
-24 -17 -33 6 -10 11 10 13 9 7 -6 -3 -10 -6 -23 -6 -28 0 -6 -4 -8 -9 -4 -5
3 -12 1 -16 -5 -3 -5 0 -10 7 -10 9 0 9 -3 -2 -10 -8 -5 -10 -10 -4 -10 6 0
11 -6 11 -14 0 -8 -6 -12 -12 -9 -8 2 -12 -5 -11 -19 0 -13 -5 -23 -11 -24 -7
-1 -18 -2 -24 -3 -5 0 -7 -6 -4 -11 4 -6 11 -7 17 -4 7 4 8 2 4 -4 -5 -9 -13
-9 -28 -1 -13 7 -18 7 -14 1 3 -6 -3 -13 -14 -17 -20 -7 -28 -25 -10 -25 6 0
10 5 10 12 0 6 2 9 5 6 8 -8 -6 -39 -15 -33 -9 6 -22 -30 -22 -62 -1 -12 -5
-20 -10 -17 -4 3 -5 10 -2 16 4 7 2 8 -5 4 -6 -4 -9 -12 -6 -17 4 -5 0 -9 -7
-9 -9 0 -9 -3 2 -10 13 -8 13 -10 -1 -10 -16 0 -19 -25 -6 -47 4 -6 2 -15 -4
-18 -5 -4 -8 -14 -5 -22 3 -8 1 -11 -4 -8 -6 3 -10 -3 -10 -14 0 -12 -7 -21
-15 -21 -8 0 -15 -5 -15 -11 0 -5 6 -7 13 -4 6 4 5 1 -3 -7 -8 -7 -16 -20 -18
-28 -2 -8 -12 -20 -23 -28 -15 -11 -17 -17 -9 -27 9 -11 8 -13 -8 -10 -16 3
-19 -1 -14 -18 5 -20 4 -21 -13 -7 -17 14 -18 14 -5 -9 11 -22 10 -23 -5 -17
-13 5 -15 3 -8 -6 10 -14 10 -24 -1 -50 -5 -10 -9 -29 -10 -43 0 -14 -4 -25
-8 -25 -5 0 -8 -5 -8 -11 0 -5 4 -7 10 -4 7 4 7 -2 0 -19 -5 -14 -7 -34 -5
-45 2 -12 -1 -20 -8 -18 -7 1 -12 -10 -12 -26 1 -27 0 -27 -13 -10 -13 17 -14
16 -7 -6 4 -13 3 -21 -1 -18 -5 3 -10 -16 -11 -41 -1 -26 -8 -65 -16 -87 -9
-23 -12 -44 -7 -49 5 -5 5 -17 -1 -28 -5 -10 -6 -18 -2 -18 10 0 9 -63 -1 -78
-4 -7 -2 -12 4 -12 7 0 9 -7 6 -15 -3 -9 0 -18 7 -21 11 -4 13 -50 13 -217 -1
-177 2 -214 14 -225 8 -8 9 -11 3 -7 -7 3 -13 2 -13 -3 0 -6 7 -13 16 -16 9
-3 14 -12 11 -19 -2 -6 5 -23 17 -36 11 -13 15 -21 9 -17 -7 4 -13 2 -13 -4 0
-6 -5 -8 -12 -4 -7 4 -8 3 -4 -5 4 -6 11 -9 15 -7 3 3 7 -4 7 -14 0 -12 -4
-16 -11 -10 -8 6 -11 -18 -12 -80 0 -79 2 -90 18 -95 15 -5 16 -9 6 -20 -6 -7
-16 -10 -22 -7 -5 3 -4 -2 4 -11 15 -18 26 -23 16 -7 -15 24 4 7 21 -17 12
-20 13 -24 3 -16 -13 11 -15 8 -11 -17 2 -17 9 -30 15 -30 6 0 1 -7 -11 -16
-12 -8 -20 -19 -17 -24 7 -11 -22 -7 -32 5 -4 4 -3 5 3 2 16 -9 39 19 24 28
-6 4 -9 3 -8 -2 2 -4 0 -8 -3 -8 -15 0 -37 -28 -33 -40 3 -7 -3 -16 -15 -20
-11 -3 -20 -12 -18 -18 1 -7 -6 -11 -17 -9 -17 3 -18 2 -7 -12 11 -13 11 -17
-3 -22 -10 -4 -15 -13 -11 -22 4 -11 2 -12 -8 -4 -10 8 -13 6 -14 -9 -1 -12 3
-17 10 -13 7 3 5 0 -3 -8 -10 -8 -16 -32 -18 -63 0 -27 -3 -59 -5 -70 -3 -11
0 -28 4 -37 6 -10 5 -19 -1 -23 -6 -4 -7 -11 -4 -17 10 -15 11 -128 1 -128 -4
0 -5 -6 -1 -12 12 -19 12 -48 1 -48 -5 0 -4 -6 2 -14 8 -10 9 -16 1 -21 -6 -3
-7 -11 -4 -17 7 -11 9 -133 3 -158 -3 -10 3 -14 14 -14 17 2 17 1 1 -17 -17
-19 -17 -20 1 -13 13 5 16 4 11 -5 -4 -6 -2 -19 6 -28 11 -14 11 -16 0 -9 -11
7 -12 4 -3 -11 6 -11 7 -24 3 -28 -4 -5 -1 -5 6 -1 7 4 9 12 6 18 -4 7 -2 8 5
4 6 -4 9 -12 6 -17 -4 -5 -1 -9 5 -9 6 0 8 -5 5 -10 -4 -6 -1 -17 5 -25 6 -8
9 -19 5 -25 -3 -5 -2 -10 3 -10 5 0 8 -17 7 -37 -2 -21 -1 -32 2 -25 3 6 9 12
14 12 6 0 8 -4 4 -9 -8 -14 30 -73 41 -63 4 4 2 -2 -6 -12 -8 -11 -10 -17 -5
-14 23 14 38 -32 21 -62 -7 -12 -6 -13 5 -2 18 17 30 15 23 -3 -5 -11 -2 -13
10 -9 11 4 16 1 16 -11 0 -10 -5 -13 -12 -9 -7 4 -8 3 -4 -5 6 -9 11 -9 22 0
8 6 17 9 21 5 3 -3 1 -6 -6 -6 -7 0 -9 -5 -6 -10 4 -6 12 -7 18 -3 7 4 5 -2
-3 -13 -8 -10 -11 -16 -6 -12 11 9 48 -10 41 -22 -3 -4 5 -6 17 -2 17 4 20 2
15 -11 -4 -11 -2 -14 8 -10 8 3 12 10 8 17 -4 6 1 5 10 -3 9 -7 15 -16 13 -20
-3 -4 0 -13 5 -21 8 -13 10 -13 20 0 8 12 9 11 4 -7 -4 -15 -1 -23 12 -26 16
-4 15 -5 -2 -6 -15 -1 -17 -3 -6 -10 7 -5 14 -24 14 -42 1 -20 9 -39 19 -47
22 -16 15 -34 -9 -25 -13 5 -12 1 5 -17 18 -19 19 -26 9 -39 -7 -9 -8 -12 -1
-8 7 4 18 -1 25 -10 12 -15 12 -16 -3 -10 -23 8 -22 5 2 -23 11 -12 17 -27 14
-31 -3 -5 0 -9 7 -9 8 0 9 -4 0 -13 -11 -14 3 -37 23 -37 5 0 1 7 -10 16 -19
15 -19 15 1 5 11 -5 21 -20 22 -33 2 -18 0 -19 -7 -8 -6 9 -10 10 -10 3 0 -6
7 -18 15 -26 8 -8 11 -17 8 -21 -4 -3 1 -6 11 -6 9 0 14 -5 11 -10 -4 -6 -10
-8 -14 -6 -4 3 -8 -1 -8 -8 0 -8 6 -12 13 -9 6 2 15 -1 20 -8 4 -7 3 -10 -3
-6 -5 3 -10 0 -10 -7 0 -8 9 -12 21 -10 12 3 15 2 9 -2 -18 -8 -16 -24 2 -24
8 0 15 -5 15 -11 0 -5 -4 -8 -9 -5 -5 4 -8 -2 -7 -11 2 -11 12 -18 23 -17 14
0 19 -5 16 -16 -2 -9 4 -23 14 -31 17 -13 17 -13 3 6 -14 19 -14 19 3 6 14
-11 15 -17 5 -30 -7 -9 -9 -13 -4 -9 14 12 35 -15 23 -30 -8 -10 -7 -12 3 -10
10 2 14 -8 14 -34 1 -20 5 -40 9 -44 4 -5 5 0 2 11 -6 16 -5 17 4 5 7 -11 6
-19 -7 -33 -9 -10 -12 -18 -7 -17 24 5 34 -1 28 -17 -5 -11 -3 -14 6 -8 10 6
11 2 6 -15 -4 -12 -3 -20 2 -17 11 7 13 -115 2 -129 -5 -6 -9 -25 -11 -42 -1
-18 -7 -32 -13 -32 -5 0 -4 -4 4 -9 9 -6 10 -11 2 -15 -6 -4 -8 -13 -4 -19 4
-7 -2 -5 -12 3 -12 9 -16 10 -11 2 9 -15 -31 -61 -54 -62 -13 0 -13 -1 0 -10
14 -9 7 -14 -13 -11 -5 1 -5 -4 -1 -10 4 -7 -3 -20 -17 -31 -13 -11 -17 -16
-9 -12 13 7 13 5 1 -9 -7 -9 -10 -17 -5 -17 5 0 1 -5 -8 -11 -10 -5 -15 -16
-11 -24 3 -9 0 -22 -7 -30 -6 -8 -8 -20 -4 -26 4 -7 3 -9 -3 -6 -6 4 -14 0
-17 -9 -3 -8 -2 -13 2 -10 5 3 9 -1 9 -9 0 -8 -4 -12 -9 -9 -4 3 -8 0 -8 -6 0
-6 -4 -9 -9 -5 -5 3 -13 0 -17 -6 -4 -8 -3 -9 4 -5 7 4 12 1 12 -9 0 -11 -5
-15 -16 -11 -10 4 -13 2 -8 -6 5 -8 1 -9 -12 -5 -18 7 -18 7 0 -8 11 -8 17
-16 13 -16 -4 -1 -11 -2 -17 -3 -5 0 -15 -7 -22 -14 -11 -11 -9 -12 7 -6 17 7
18 5 8 -8 -7 -8 -9 -19 -5 -24 4 -4 -1 -2 -11 5 -15 12 -17 12 -11 -3 4 -9 1
-16 -6 -16 -9 0 -6 -8 6 -22 10 -12 14 -18 7 -15 -6 4 -15 1 -20 -7 -4 -8 -11
-15 -15 -15 -5 -1 -7 -4 -6 -8 2 -5 7 -7 11 -5 5 1 6 -2 2 -8 -3 -6 -11 -8
-16 -5 -5 4 -9 -1 -9 -10 0 -9 -4 -14 -9 -11 -5 3 -11 -3 -14 -15 -5 -18 -3
-18 11 -7 15 12 16 11 3 -5 -8 -10 -21 -15 -29 -12 -12 4 -13 3 -2 -10 9 -11
9 -15 1 -15 -9 0 -9 -6 0 -22 11 -21 11 -22 -4 -10 -13 11 -16 10 -23 -10 -9
-26 -11 -34 -13 -49 -1 -8 -6 -8 -16 1 -13 11 -14 10 -9 -4 3 -9 10 -16 16
-16 5 0 6 -5 3 -11 -4 -6 -13 -8 -19 -6 -7 3 -13 0 -14 -6 -3 -37 -22 -78 -22
-49 0 7 -5 12 -10 12 -7 0 -7 -8 1 -22 6 -13 8 -20 4 -16 -5 4 -15 2 -24 -5
-14 -11 -15 -10 -2 8 8 11 2 7 -13 -8 -22 -22 -31 -26 -41 -17 -11 10 -13 8
-10 -9 2 -12 0 -19 -5 -16 -18 11 -51 14 -45 4 4 -5 11 -6 17 -3 6 4 8 2 5 -3
-4 -6 -25 -9 -47 -7 -31 3 -40 0 -40 -12 0 -14 -2 -14 -16 0 -21 21 -27 20
-15 -3 9 -16 7 -17 -16 -13 -20 4 -24 2 -18 -9 7 -12 6 -12 -7 -1 -14 11 -19
9 -33 -10 l-17 -23 7 25 c7 24 6 24 -7 6 -8 -10 -20 -16 -25 -13 -6 4 -18 -2
-28 -13 -20 -22 -35 -26 -35 -9 0 5 5 7 12 3 7 -5 8 -3 3 6 -6 10 -12 7 -26
-11 -10 -13 -19 -28 -19 -33 0 -6 -6 -1 -14 9 -13 18 -13 18 -24 -1 -8 -13
-11 -14 -12 -5 0 11 -4 9 -15 -5 -12 -16 -16 -17 -24 -4 -8 12 -12 10 -20 -10
-5 -14 -10 -20 -10 -13 -1 9 -8 10 -23 4 -13 -5 -22 -15 -20 -23 3 -10 1 -10
-8 -2 -9 9 -17 7 -33 -9 -13 -13 -22 -17 -25 -9 -2 7 -8 12 -14 12 -6 0 -7 -7
-4 -15 7 -20 -23 -33 -34 -15 -6 9 -12 6 -24 -13 -12 -17 -23 -23 -36 -20 -14
4 -23 -2 -29 -18 -8 -21 -10 -21 -10 -4 -1 17 -3 16 -23 -8 -20 -24 -22 -25
-35 -9 -7 9 -13 13 -12 7 3 -25 -3 -32 -31 -30 -21 1 -29 -2 -26 -10 3 -8 -2
-11 -15 -8 -11 3 -19 0 -19 -6 0 -7 -10 -11 -22 -9 -16 2 -24 -4 -29 -22 -4
-14 -7 -20 -8 -14 -1 7 -8 15 -17 18 -15 6 -15 4 -3 -10 13 -16 12 -16 -11 -4
-22 11 -23 11 -13 -1 10 -12 6 -14 -25 -13 -20 0 -46 -5 -58 -13 -11 -7 -25
-10 -29 -6 -5 5 -3 0 4 -10 8 -9 11 -20 7 -24 -3 -3 -6 -1 -6 6 0 8 -6 11 -16
7 -8 -3 -12 -2 -9 4 3 6 -1 7 -9 4 -9 -3 -16 -10 -16 -16 0 -5 -4 -7 -9 -3 -6
3 -14 -3 -20 -12 -6 -10 -11 -13 -11 -7 0 15 -46 6 -61 -12 -6 -8 -22 -14 -36
-14 -14 0 -21 -4 -18 -10 3 -6 1 -10 -5 -10 -6 0 -8 -5 -4 -12 4 -7 3 -8 -5
-4 -6 4 -9 11 -7 15 3 4 -1 8 -9 8 -8 0 -15 -7 -16 -16 0 -10 -2 -12 -6 -3 -2
6 -9 12 -14 12 -6 0 -7 -5 -3 -11 5 -8 -1 -10 -19 -7 -14 3 -26 2 -25 -1 2
-19 -4 -24 -12 -11 -6 10 -10 11 -10 3 0 -7 -7 -13 -16 -13 -8 0 -12 -4 -9
-10 3 -5 1 -10 -4 -10 -6 0 -11 6 -11 13 0 9 -3 8 -9 -2 -7 -11 -10 -11 -15 0
-3 8 -4 4 -2 -9 2 -12 0 -20 -4 -17 -5 3 -15 -2 -24 -11 -9 -8 -19 -13 -24
-10 -4 2 -8 -4 -8 -14 0 -15 3 -17 15 -7 12 9 13 9 7 0 -4 -7 -16 -18 -26 -23
-16 -9 -19 -8 -13 7 5 15 3 15 -10 -2 -8 -11 -14 -22 -12 -26 2 -3 -2 -6 -9
-6 -8 0 -13 5 -12 11 2 6 1 8 -1 4 -3 -5 -12 -8 -21 -8 -15 0 -15 -2 -2 -10
13 -8 12 -10 -3 -10 -10 0 -16 -4 -13 -9 3 -4 -8 -7 -24 -5 -17 2 -30 -1 -30
-6 0 -6 -5 -10 -11 -10 -5 0 -7 6 -3 13 5 7 0 6 -11 -3 -10 -8 -20 -14 -22
-12 -5 4 -2 -13 4 -18 4 -3 3 0 0 7 -7 12 18 12 28 0 3 -4 2 -5 -2 -2 -3 3
-15 -3 -26 -12 -13 -11 -17 -12 -12 -4 6 11 4 13 -9 8 -10 -4 -22 -7 -27 -7
-6 0 -7 -5 -3 -12 5 -7 3 -8 -7 -2 -19 11 -52 11 -61 -1 -5 -6 -8 -5 -8 3 0 7
-5 10 -10 7 -6 -4 -7 -11 -4 -17 4 -5 -4 -5 -16 2 -20 10 -22 10 -17 -3 4 -11
0 -13 -14 -10 -15 4 -18 2 -13 -12 5 -13 3 -16 -7 -13 -8 3 -13 11 -11 17 1 7
-2 10 -7 6 -6 -3 -8 -12 -4 -21 6 -16 -16 -16 -30 1 -5 6 -7 3 -4 -7 7 -21
-18 -46 -26 -26 -4 8 -6 7 -6 -4 -1 -10 4 -18 11 -18 6 0 8 -3 5 -7 -4 -3 -17
2 -29 13 -12 10 -18 13 -14 7 4 -8 2 -13 -4 -13 -7 0 -9 -7 -6 -17 6 -15 4
-15 -14 2 -11 10 -23 15 -27 12 -3 -4 -1 -7 5 -7 7 0 12 -5 12 -11 0 -6 -7 -8
-16 -5 -12 4 -15 2 -10 -9 7 -20 -4 -19 -20 3 -13 16 -14 16 -8 -1 4 -12 2
-17 -7 -15 -7 2 -13 -2 -14 -9 0 -21 -14 -26 -32 -12 -11 9 -14 10 -9 1 5 -8
0 -12 -14 -12 -14 0 -19 -4 -14 -12 5 -10 4 -10 -6 -1 -10 9 -16 8 -27 -3 -8
-8 -20 -11 -26 -7 -6 4 -8 0 -4 -10 3 -10 2 -17 -3 -17 -6 0 -10 5 -10 10 0
15 -16 12 -34 -6 -9 -8 -16 -12 -16 -8 0 4 -7 -1 -15 -12 -15 -19 -15 -19 -9
1 5 20 5 20 -10 1 -8 -10 -13 -23 -9 -28 3 -6 -5 -4 -18 2 l-23 13 19 -29 c11
-18 13 -25 4 -17 -16 13 -61 14 -53 1 3 -5 10 -6 15 -3 5 4 9 1 9 -4 0 -10
-14 -15 -34 -12 -5 1 -6 -5 -3 -13 4 -9 1 -18 -5 -22 -7 -4 -8 -3 -4 4 4 7 2
12 -5 12 -6 0 -9 -8 -6 -20 4 -17 2 -18 -16 -8 -12 6 -19 7 -15 3 5 -5 -6 -17
-23 -27 -21 -13 -29 -24 -25 -35 5 -13 4 -14 -9 -3 -12 10 -15 9 -15 -6 0 -17
-1 -17 -15 2 -13 16 -14 16 -9 1 6 -16 -10 -23 -39 -18 -5 1 -5 -4 -1 -10 5
-9 2 -10 -10 -6 -14 5 -17 3 -12 -8 7 -18 -5 -20 -23 -2 -11 10 -12 9 -6 -2 6
-11 4 -13 -8 -8 -11 4 -14 2 -10 -9 3 -7 1 -14 -5 -14 -6 0 -13 6 -15 13 -4 9
-6 9 -6 -1 -1 -7 -5 -11 -9 -8 -5 3 -8 -5 -8 -17 1 -16 -4 -21 -18 -19 -18 3
-18 2 -5 -14 13 -16 12 -16 -11 -4 -24 13 -24 12 -10 -5 9 -11 10 -16 3 -11
-8 4 -13 2 -13 -6 0 -10 -3 -9 -9 1 -7 12 -13 12 -24 3 -7 -7 -17 -9 -20 -6
-4 4 -4 -3 -2 -15 2 -13 0 -19 -6 -15 -5 3 -17 0 -26 -8 -12 -9 -15 -9 -9 -1
4 7 2 13 -3 13 -10 0 -16 -22 -11 -45 1 -5 -7 -2 -18 8 -23 21 -35 12 -20 -17
10 -19 10 -20 -5 -7 -15 12 -17 11 -17 -3 0 -10 -4 -14 -10 -11 -5 3 -10 1
-10 -4 0 -6 5 -11 12 -11 6 0 9 -3 6 -6 -4 -3 -15 -1 -25 5 -15 8 -20 7 -20
-4 0 -8 5 -11 10 -8 6 4 7 1 3 -6 -5 -7 -14 -10 -21 -7 -9 3 -12 -2 -10 -14 3
-14 -1 -17 -12 -13 -10 4 -14 2 -10 -4 4 -6 0 -16 -8 -23 -8 -7 -12 -16 -9
-21 3 -5 2 -9 -3 -8 -4 1 -16 1 -27 0 -16 -1 -17 -3 -5 -18 13 -15 12 -15 -11
-3 -24 13 -24 12 -10 -5 14 -17 13 -18 -4 -12 -17 7 -17 6 -5 -9 12 -15 11
-16 -11 -11 -14 4 -19 4 -12 1 6 -3 12 -10 12 -15 0 -6 -6 -7 -13 -3 -9 6 -9
5 0 -7 8 -9 9 -20 3 -29 -7 -10 -10 -11 -10 -2 0 6 -5 12 -12 12 -6 0 -9 -3
-5 -6 3 -4 0 -13 -8 -21 -8 -8 -15 -27 -15 -43 0 -16 -7 -33 -16 -38 -9 -5
-17 -21 -17 -36 0 -14 -4 -26 -9 -26 -7 0 -7 -5 0 -13 7 -8 7 -18 2 -27 -5 -8
-6 -18 -4 -22 3 -4 -2 -8 -12 -8 -11 0 -15 -6 -11 -20 3 -11 1 -18 -4 -14 -5
3 -9 0 -9 -6 0 -6 -4 -9 -8 -6 -4 2 -9 -4 -9 -15 -1 -12 3 -17 10 -13 7 4 -3
-7 -22 -23 -26 -22 -31 -32 -21 -38 9 -6 11 -4 5 5 -5 9 -4 11 4 6 14 -9 3
-29 -13 -23 -8 3 -11 -13 -10 -59 1 -34 5 -68 9 -73 3 -6 0 -8 -8 -5 -9 3 -16
-3 -20 -16 -4 -17 -3 -19 9 -9 9 7 14 8 14 1 0 -6 -5 -14 -10 -17 -6 -4 -7
-11 -4 -17 4 -6 -2 -6 -15 1 -17 10 -20 9 -15 -4 4 -8 1 -22 -5 -29 -9 -10 -9
-16 -1 -21 7 -4 7 -11 2 -18 -14 -19 -15 -80 -1 -71 8 4 9 3 5 -5 -6 -9 -11
-9 -24 1 -14 12 -14 10 -2 -12 12 -22 12 -24 -3 -12 -13 11 -15 10 -10 -9 5
-18 3 -21 -11 -16 -9 4 -15 3 -11 -2 8 -15 -6 -42 -19 -34 -6 3 -2 -4 8 -16
17 -18 17 -21 3 -15 -18 7 -18 7 -21 -68 0 -27 3 -48 9 -48 6 0 6 -3 -1 -8 -5
-4 -11 -16 -11 -27 -1 -51 -8 -83 -15 -79 -5 3 -6 9 -4 13 3 4 0 13 -6 21 -8
12 -9 12 -4 -2 3 -10 2 -18 -3 -18 -4 0 -8 -7 -8 -15 0 -8 4 -12 9 -9 4 3 8 0
8 -5 0 -6 -7 -11 -16 -11 -8 0 -13 -4 -10 -9 4 -5 0 -12 -6 -14 -10 -4 -9 -6
1 -6 11 -1 11 -4 0 -18 -12 -15 -12 -16 1 -8 13 8 13 6 1 -8 -7 -9 -18 -14
-24 -10 -6 3 -7 1 -3 -5 4 -6 14 -9 24 -6 15 5 15 4 -2 -10 -10 -8 -15 -20
-10 -27 4 -8 3 -10 -4 -5 -13 8 -12 -20 1 -41 4 -6 2 -15 -4 -19 -8 -4 -9 -3
-5 4 4 7 3 12 -3 12 -6 0 -13 -16 -17 -36 -5 -25 -9 -32 -15 -22 -6 9 -9 7 -9
-10 0 -15 4 -21 12 -16 7 4 8 3 4 -4 -4 -7 -15 -12 -24 -12 -13 0 -14 -2 -4
-9 16 -10 12 -31 -8 -49 -11 -10 -11 -12 -1 -6 10 5 12 3 6 -6 -4 -7 -2 -16 6
-21 9 -6 1 -7 -21 -4 -19 3 -29 3 -22 -1 14 -7 17 -34 3 -34 -5 0 -9 -37 -9
-82 1 -130 -1 -160 -11 -153 -5 3 -13 0 -17 -6 -4 -7 -3 -9 4 -5 6 3 13 2 17
-4 3 -5 0 -10 -7 -10 -10 0 -13 -14 -12 -50 2 -33 -1 -50 -9 -50 -7 0 -6 -4 3
-10 13 -8 12 -10 -2 -10 -10 0 -18 -5 -18 -11 0 -5 5 -7 11 -3 7 4 10 1 7 -7
-3 -8 -11 -13 -17 -11 -9 2 -9 -3 -1 -18 8 -15 8 -20 -2 -20 -8 0 -9 -3 -3 -8
12 -9 16 -44 4 -36 -5 3 -9 0 -9 -6 0 -6 -4 -9 -9 -6 -10 6 -6 -37 5 -55 4 -8
3 -9 -5 -5 -8 5 -10 -1 -6 -23 4 -23 1 -33 -10 -37 -14 -6 -13 -8 2 -21 10 -8
13 -12 6 -9 -6 4 -14 2 -18 -4 -3 -5 0 -10 7 -10 8 0 7 -4 -4 -11 -13 -7 -15
-15 -9 -31 6 -17 3 -26 -13 -39 -19 -16 -20 -18 -3 -24 9 -4 17 -11 17 -16 0
-4 -6 -6 -13 -3 -9 3 -13 -5 -13 -28 1 -24 -3 -32 -14 -30 -10 1 -9 -2 4 -13
19 -15 19 -15 -5 -16 -13 0 -18 -3 -11 -6 6 -2 12 -11 12 -19 0 -9 -3 -13 -7
-11 -5 3 -8 -19 -9 -48 0 -30 3 -52 8 -49 4 3 5 -2 2 -10 -3 -9 -9 -14 -13
-11 -4 2 -7 -11 -6 -30 0 -18 -4 -31 -9 -28 -5 3 -7 -6 -4 -21 4 -18 1 -26 -8
-26 -8 0 -14 -5 -14 -11 0 -5 4 -8 9 -5 5 4 8 -2 7 -11 -2 -9 -8 -19 -14 -21
-7 -2 -9 -8 -6 -13 8 -14 -16 -40 -30 -32 -6 4 -5 -1 2 -10 8 -9 10 -22 6 -29
-6 -10 -4 -11 7 -3 8 6 7 2 -3 -7 -23 -20 -24 -28 -6 -39 8 -6 9 -9 1 -9 -12
0 -12 -24 0 -36 4 -4 2 -13 -4 -20 -7 -8 -7 -14 1 -19 7 -4 4 -15 -9 -31 -13
-17 -19 -37 -17 -64 2 -23 -1 -37 -6 -34 -6 4 -5 -3 1 -13 6 -11 7 -23 4 -27
-3 -3 2674 -6 5950 -6 4758 0 5957 3 5958 13 1 6 0 17 -1 22 -8 33 -7 55 3 55
8 0 8 3 2 8 -10 7 -12 19 -16 77 -2 17 -6 35 -11 42 -5 6 -5 14 2 18 7 4 3 17
-12 38 -12 17 -17 28 -11 24 23 -14 6 25 -21 48 -18 16 -23 25 -14 28 8 3 5 6
-6 6 -11 1 -17 4 -13 7 3 4 1 12 -6 19 -7 7 -19 23 -27 36 -8 13 -31 39 -50
59 -33 34 -38 44 -42 83 -1 9 -9 17 -18 17 -10 0 -7 6 10 20 14 11 22 20 18
21 -5 1 -12 2 -18 3 -5 0 -10 4 -10 9 0 4 3 6 6 5 3 -2 10 5 16 16 8 14 7 21
-3 27 -12 7 -11 9 1 9 12 0 12 2 2 9 -7 4 -12 12 -11 17 4 23 -2 35 -13 28 -9
-5 -9 -2 1 9 11 14 11 17 0 17 -11 0 -11 2 1 10 9 6 10 10 3 10 -8 0 -10 15
-8 45 1 25 -1 45 -7 45 -5 0 -3 10 3 22 11 21 11 22 -4 9 -10 -8 -17 -9 -17
-3 0 6 4 14 10 17 6 4 4 16 -6 31 -12 17 -13 24 -4 24 10 0 10 3 1 14 -9 11
-9 15 1 19 10 4 10 6 1 6 -7 1 -13 6 -13 12 0 5 4 7 10 4 6 -3 7 1 4 10 -5 12
-9 13 -20 4 -12 -10 -13 -9 -8 5 3 9 11 16 16 16 6 0 0 9 -13 21 -13 11 -18
18 -11 14 8 -4 12 1 12 14 0 12 -4 21 -9 21 -5 0 -11 9 -14 19 -3 15 -1 18 12
15 9 -3 5 2 -9 10 -16 10 -19 15 -10 16 9 0 11 3 5 8 -14 9 -13 65 0 74 6 5 6
8 -2 8 -12 0 -12 17 0 38 6 8 2 12 -10 12 -15 0 -16 2 -3 10 12 8 12 10 1 10
-11 0 -11 3 -1 15 7 9 10 18 6 22 -3 3 -6 1 -6 -5 0 -7 -4 -12 -9 -12 -5 0 -7
9 -4 20 3 13 0 20 -8 20 -11 0 -11 2 1 10 13 9 13 10 0 10 -13 0 -13 1 0 10
13 9 13 10 0 11 -8 1 -19 1 -24 0 -5 -1 -4 4 2 12 7 8 8 18 4 22 -4 5 0 4 8 0
12 -7 12 -5 -1 11 -10 11 -15 30 -12 47 2 16 -2 36 -9 45 -8 10 -8 13 -1 9 6
-4 10 -2 8 5 -10 40 -19 58 -29 58 -6 0 -4 5 4 10 9 6 10 10 3 10 -7 0 -18 10
-24 23 -11 20 -11 21 5 8 14 -12 16 -12 10 3 -3 9 -10 16 -16 16 -5 0 -6 5 -3
10 3 6 -4 10 -17 11 l-23 0 23 11 c24 12 31 34 8 25 -8 -3 -17 1 -20 9 -3 8
-1 14 3 14 5 0 11 7 14 14 4 9 1 13 -6 10 -7 -2 -18 6 -26 18 -13 21 -13 22 1
10 13 -11 16 -8 16 15 0 16 -5 34 -10 40 -7 9 -6 13 3 13 8 0 6 5 -6 12 -11 6
-24 17 -28 25 -5 7 -12 11 -17 8 -5 -3 -11 -1 -15 5 -3 5 -2 10 3 10 5 0 12 9
15 21 4 14 2 19 -8 15 -7 -2 -16 2 -19 10 -3 8 1 14 9 14 9 0 12 6 9 15 -4 8
-10 12 -15 9 -13 -7 -7 19 6 28 6 5 5 8 -2 8 -7 0 -10 7 -6 17 5 12 2 15 -10
10 -15 -5 -16 -3 -7 13 8 15 6 22 -11 33 -11 8 -22 23 -24 33 -2 11 -4 21 -5
24 -1 3 -2 8 -1 13 0 4 -3 7 -8 7 -6 0 -10 8 -10 18 -3 59 -6 71 -16 62 -8 -6
-10 0 -9 23 1 18 -3 38 -9 46 -9 11 -9 13 0 8 7 -4 10 -1 9 10 -2 9 -8 19 -14
21 -7 2 -9 9 -5 15 4 7 1 7 -9 -1 -13 -10 -18 -10 -24 -1 -4 7 -3 9 3 6 6 -4
13 0 17 8 6 17 -9 29 -26 20 -7 -4 -5 0 5 8 9 8 17 18 17 22 0 4 -8 4 -17 1
-15 -5 -15 -4 1 9 17 13 17 15 4 15 -19 0 -33 34 -22 51 4 7 3 9 -4 5 -6 -3
-13 -2 -17 4 -3 5 0 10 7 10 11 0 11 2 0 9 -7 4 -14 24 -15 44 -1 20 -6 37
-10 37 -5 0 -7 8 -6 18 3 33 -1 43 -13 36 -8 -5 -7 0 2 11 9 11 10 16 3 11 -9
-5 -13 0 -13 14 0 14 4 19 13 14 7 -4 9 -3 4 2 -5 5 -13 10 -18 10 -5 1 -14 2
-20 3 -5 0 -7 6 -4 11 4 6 11 7 17 4 7 -4 8 -2 4 4 -4 6 -14 8 -23 5 -11 -4
-14 -3 -9 5 4 7 2 12 -4 12 -6 0 -9 4 -6 8 3 5 -4 15 -15 22 -10 8 -19 20 -19
28 0 8 -5 10 -12 6 -10 -6 -10 -4 0 7 14 15 16 33 3 25 -5 -3 -20 3 -32 15
-13 11 -19 18 -12 15 6 -4 14 -2 18 4 3 5 -3 10 -13 10 -25 0 -40 19 -37 47 1
13 -3 19 -11 16 -7 -2 -10 -12 -7 -21 4 -14 3 -15 -5 -2 -7 9 -8 18 -1 26 7 8
6 15 -2 20 -8 5 -9 3 -4 -6 5 -9 4 -11 -3 -6 -7 4 -12 14 -12 23 0 13 -3 13
-17 2 -17 -13 -17 -12 0 7 16 19 16 23 2 34 -8 7 -12 16 -10 21 3 4 -4 6 -16
4 -16 -3 -18 -1 -10 9 8 10 6 18 -9 31 -21 19 -28 41 -9 29 8 -4 8 -1 1 12 -5
11 -8 29 -7 41 1 12 -2 20 -7 17 -5 -4 -9 0 -7 7 1 8 1 23 0 34 -1 16 -3 17
-10 6 -7 -11 -14 -10 -40 8 -17 12 -31 31 -31 42 0 17 -11 24 -33 20 -4 0 -6
2 -6 6 5 34 -3 49 -28 51 -25 2 -47 23 -48 47 0 6 -10 9 -23 9 -17 -1 -22 4
-22 24 0 21 -2 23 -16 12 -8 -8 -14 -9 -13 -4 4 21 -2 32 -20 37 -15 3 -18 1
-14 -12 3 -9 -4 -2 -15 15 -21 32 -54 43 -45 15 3 -12 2 -12 -7 2 -6 9 -23 17
-38 17 -30 0 -40 6 -62 34 -9 12 -10 17 -2 12 6 -4 12 -3 12 2 0 6 -8 13 -17
16 -15 6 -15 8 -3 16 11 7 11 10 2 10 -9 0 -10 5 -2 19 8 16 7 19 -8 16 -9 -1
-27 3 -39 11 -16 10 -24 11 -29 2 -5 -7 -2 -8 7 -3 8 5 10 4 6 0 -4 -5 -15
-10 -24 -11 -12 -2 -13 0 -4 9 17 17 13 31 -4 17 -13 -11 -14 -10 -9 3 4 12 0
14 -18 10 -18 -4 -20 -3 -8 6 13 9 12 11 -3 11 -10 0 -25 6 -33 14 -16 17 -19
30 -4 21 5 -3 7 0 4 9 -5 12 -9 13 -19 3 -7 -7 -11 -15 -8 -19 8 -15 -5 -8
-18 9 -10 11 -10 14 -1 9 6 -4 12 -2 12 3 0 12 -13 15 -45 11 -16 -2 -17 0 -6
13 10 13 9 15 -10 10 -15 -4 -20 -2 -15 5 3 6 1 14 -5 18 -7 4 -9 3 -6 -3 4
-6 0 -13 -8 -16 -8 -4 -16 2 -20 13 -3 10 -13 21 -22 24 -12 5 -13 3 -5 -7 8
-10 6 -13 -9 -13 -10 0 -21 8 -24 17 -3 10 -12 20 -20 23 -9 3 -12 0 -9 -8 3
-8 1 -16 -3 -19 -5 -3 -10 4 -10 15 -2 28 -19 43 -28 27 -5 -8 -4 -10 3 -5 7
4 12 2 12 -3 0 -17 -13 -13 -44 14 -22 19 -32 22 -47 14 -15 -7 -19 -7 -17 3
2 7 -4 14 -12 14 -8 1 -20 2 -27 3 -7 0 -10 7 -7 15 7 18 -12 30 -22 15 -5 -8
-3 -9 6 -4 9 6 11 4 5 -5 -6 -10 -11 -10 -20 3 -7 9 -15 14 -18 10 -4 -3 -7
-1 -7 6 0 7 -5 9 -12 5 -7 -4 -8 -3 -4 4 4 7 2 12 -4 12 -7 0 -10 6 -7 14 4
10 0 12 -13 9 -21 -6 -53 20 -42 32 4 5 2 5 -5 1 -7 -4 -11 -12 -9 -19 1 -7 1
-9 -1 -4 -3 4 -9 5 -14 2 -5 -4 -6 1 -3 9 3 9 1 16 -6 16 -6 0 -9 4 -6 8 3 5
-1 9 -9 9 -8 0 -12 -3 -10 -7 2 -4 -2 -7 -10 -7 -8 0 -13 2 -10 5 6 6 -21 32
-35 32 -6 0 -8 -5 -5 -11 4 -6 -2 -5 -13 2 -17 11 -19 16 -9 28 10 12 9 13
-10 3 -16 -9 -24 -9 -29 0 -4 6 -3 8 4 4 6 -3 13 -2 17 4 4 6 -8 10 -28 10
-24 0 -37 5 -42 18 -5 14 -4 15 6 5 16 -16 29 -17 29 -1 0 6 -3 8 -7 5 -3 -4
-13 -2 -20 5 -11 9 -17 9 -24 -3 -7 -11 -9 -9 -9 7 0 19 -5 22 -34 20 -19 -1
-34 1 -34 4 1 18 -4 21 -17 10 -10 -8 -15 -9 -15 -2 0 7 -7 9 -17 5 -10 -4
-14 -2 -9 5 3 6 2 13 -4 17 -5 3 -10 1 -10 -4 0 -6 -7 -11 -16 -11 -10 0 -14
6 -11 14 4 10 1 13 -10 9 -8 -3 -19 0 -24 8 -7 11 -9 11 -9 1 0 -8 -8 -5 -22
8 -12 11 -35 20 -51 20 -18 0 -36 9 -48 23 -14 16 -17 17 -13 4 3 -9 1 -17 -5
-17 -6 0 -11 8 -11 18 0 14 -2 15 -10 2 -7 -11 -10 -11 -10 -2 0 7 -4 11 -9 7
-5 -3 -13 0 -17 6 -4 7 -3 9 4 5 6 -3 13 -2 16 3 7 11 -13 9 -33 -3 -10 -6
-12 -5 -7 2 4 7 2 12 -4 12 -6 0 -8 5 -5 10 4 6 3 10 -2 9 -31 -5 -55 2 -49
17 3 8 2 12 -3 9 -5 -3 -12 -1 -15 4 -3 5 -20 8 -37 7 -16 -1 -33 2 -36 7 -3
6 -2 7 4 4 5 -3 10 0 10 7 0 8 -6 12 -13 9 -7 -3 -23 5 -35 16 -26 24 -45 27
-53 9 -3 -7 -3 -2 0 11 4 15 2 21 -4 17 -6 -3 -13 0 -15 6 -4 10 -6 10 -6 0
-1 -7 -5 -10 -11 -7 -5 3 -10 0 -10 -7 -1 -7 -6 -4 -13 7 -7 11 -20 21 -30 21
-12 1 -15 -2 -10 -10 4 -7 0 -3 -9 7 -10 11 -15 23 -12 28 3 5 0 9 -5 9 -6 0
-11 -8 -11 -17 -1 -16 -2 -16 -13 -2 -8 10 -25 15 -49 14 -35 -2 -43 4 -39 28
1 5 -3 5 -9 2 -6 -4 -9 -14 -6 -24 5 -12 2 -11 -9 3 -8 11 -15 14 -15 8 0 -7
-4 -12 -10 -12 -5 0 -10 6 -10 14 0 8 -10 13 -27 12 -20 -1 -27 3 -25 14 1 9
-7 5 -19 -10 -19 -22 -21 -22 -15 -4 6 19 2 20 -51 21 -40 0 -58 4 -61 14 -3
11 -1 11 8 -1 9 -12 11 -12 8 -1 -2 8 -12 15 -21 17 -9 1 -15 -2 -12 -6 3 -5
0 -12 -6 -16 -8 -4 -9 -3 -5 4 4 7 1 12 -6 12 -8 1 -5 7 7 16 20 16 20 16 -1
10 -24 -7 -54 1 -54 16 0 5 5 6 12 2 7 -5 8 -3 3 6 -7 11 -11 11 -19 -3 -9
-14 -12 -13 -22 11 -9 19 -13 22 -13 10 -1 -10 -5 -18 -11 -18 -5 0 -6 8 -3
18 6 15 5 16 -12 2 -11 -9 -16 -10 -11 -3 4 8 2 13 -4 13 -7 0 -10 7 -6 15 5
13 2 14 -17 4 -12 -7 -23 -13 -24 -13 -1 -1 -9 8 -17 19 -9 11 -16 15 -16 8 0
-7 -7 -10 -15 -7 -8 4 -12 11 -9 16 4 6 -2 6 -14 -1 -16 -9 -19 -7 -18 7 1 11
-5 16 -18 14 -10 -2 -15 1 -12 6 3 5 -3 12 -15 15 -18 5 -18 3 -7 -11 11 -15
10 -14 -8 1 -11 9 -24 14 -29 10 -4 -5 -4 -2 0 6 6 11 4 13 -7 8 -9 -3 -24 1
-35 9 -17 14 -17 15 3 5 16 -8 21 -7 21 5 0 7 -2 12 -5 9 -9 -8 -42 16 -42 31
0 8 -5 12 -10 9 -6 -4 -7 -11 -4 -17 4 -7 2 -8 -4 -4 -9 5 -9 13 -2 26 7 13 7
21 -2 26 -6 4 -8 3 -5 -3 3 -5 1 -10 -6 -10 -7 0 -13 8 -13 18 0 10 3 16 6 14
4 -2 7 2 7 10 0 8 -4 12 -9 9 -4 -3 -8 0 -8 6 0 7 -6 10 -13 7 -8 -3 -14 1
-14 9 0 7 4 11 8 8 4 -2 10 0 13 5 4 6 -8 8 -26 6 -18 -2 -27 -1 -20 2 6 2 12
12 12 20 0 12 -3 13 -14 4 -11 -9 -16 -9 -22 0 -4 7 -3 9 3 6 6 -4 13 2 16 14
4 16 3 18 -9 8 -11 -9 -14 -8 -15 7 -1 11 -1 23 0 27 1 5 -3 6 -9 2 -17 -11
-31 5 -21 24 7 13 6 18 -4 18 -8 0 -12 -4 -9 -9 3 -4 -3 -5 -12 -1 -16 6 -16
7 0 18 15 11 15 13 1 19 -9 3 -13 2 -10 -4 10 -17 -5 -11 -27 10 -12 10 -26
17 -31 13 -6 -4 -7 -1 -2 6 5 9 10 10 18 2 6 -6 16 -11 21 -11 6 0 3 5 -6 11
-10 5 -15 16 -12 24 4 8 1 15 -6 15 -6 0 -8 -4 -5 -10 9 -15 -2 -12 -24 6 -12
11 -18 26 -15 40 3 16 0 24 -10 24 -8 0 -17 7 -20 16 -5 13 -4 14 7 6 10 -9
14 -8 14 2 0 8 -9 13 -22 11 -18 -1 -21 2 -17 18 3 14 1 18 -6 13 -7 -4 -12
-2 -12 4 0 6 -5 8 -12 4 -7 -4 -8 -3 -4 4 4 6 14 9 24 6 14 -5 15 -4 2 5 -8 6
-15 16 -15 23 0 7 -9 12 -19 10 -15 -3 -18 1 -13 17 6 26 -1 27 -19 4 -13 -17
-14 -17 -8 0 4 11 0 23 -12 33 -19 14 -19 14 0 7 13 -4 17 -3 12 5 -4 7 -15
12 -24 13 -11 0 -12 3 -4 6 6 2 12 9 12 14 0 6 -4 8 -8 5 -10 -6 -10 95 0 110
4 6 5 14 1 18 -8 8 -11 55 -3 54 19 -2 26 4 26 22 0 11 -3 20 -6 20 -9 0 -5
49 5 57 4 5 5 2 1 -4 -4 -8 -2 -11 6 -8 8 3 14 18 15 33 1 59 8 84 25 93 14 7
16 6 12 -6 -3 -8 -9 -13 -13 -10 -4 2 -8 -3 -8 -12 0 -11 7 -8 23 12 19 23 21
33 12 49 -10 20 -10 20 7 6 17 -14 17 -14 7 7 -9 16 -9 24 0 29 7 5 8 3 3 -6
-5 -9 -4 -11 3 -6 7 4 12 14 12 22 0 8 5 12 10 9 6 -4 10 -3 9 2 -1 4 0 11 1
16 1 4 3 13 4 20 1 6 8 11 15 9 7 -1 10 2 6 8 -3 6 -12 7 -18 4 -7 -4 -2 3 11
16 13 12 21 29 18 37 -4 10 -2 13 8 10 10 -4 12 0 9 14 -4 15 -2 18 11 13 9
-3 16 -2 16 4 0 5 -8 13 -17 17 -17 6 -17 8 2 23 11 9 20 27 19 40 -1 12 4 22
10 22 7 0 7 3 1 8 -5 4 -11 13 -13 21 -2 11 0 12 11 3 11 -10 13 -6 12 18 -1
16 2 27 7 24 5 -3 7 6 4 20 -3 15 -1 24 4 21 4 -3 11 2 14 11 9 22 8 26 -5 18
-8 -4 -8 0 0 15 7 12 9 27 5 34 -6 9 -5 9 7 0 13 -10 16 -10 16 2 0 8 -7 15
-16 15 -11 1 -7 6 9 15 14 8 19 14 11 15 -9 0 -10 4 -4 13 5 6 9 24 8 39 -1
23 1 25 14 15 12 -10 13 -9 2 11 -6 12 -8 22 -3 22 5 0 8 14 7 31 -2 22 1 29
11 25 7 -3 16 3 19 14 3 10 13 21 21 24 8 3 13 10 10 14 -2 4 7 8 22 8 20 -1
27 4 26 17 -2 15 1 16 14 5 13 -11 15 -10 9 4 -4 11 -2 17 6 15 7 -1 11 4 9
11 -1 8 2 11 8 7 6 -3 8 -11 5 -16 -4 -5 -2 -9 3 -9 5 0 12 9 15 21 3 11 11
19 19 18 26 -3 39 1 33 11 -3 6 2 10 11 10 16 0 16 1 -2 14 -13 10 -14 14 -4
13 8 -2 20 -5 25 -9 6 -4 12 2 12 13 1 12 -2 17 -10 12 -7 -3 -3 3 7 16 11 12
26 19 33 17 7 -3 12 -2 12 2 -3 19 2 33 10 27 5 -3 12 -1 15 4 4 5 1 13 -5 17
-8 5 -9 3 -4 -6 5 -9 4 -11 -4 -6 -6 4 -9 12 -5 17 3 5 10 7 15 4 5 -4 9 0 9
8 0 7 11 20 25 27 l26 14 -22 11 c-19 10 -19 13 -5 18 11 5 15 3 10 -5 -4 -7
-3 -8 4 -4 7 4 12 14 12 22 0 8 5 14 12 14 6 0 3 7 -8 15 -18 15 -18 15 0 8
13 -4 17 -3 12 5 -4 7 -4 12 1 12 10 0 10 91 0 107 -4 6 -4 14 1 17 10 6 9 67
-1 84 -4 6 -3 13 2 16 4 3 6 24 4 46 -3 26 0 47 9 57 11 14 11 16 -2 8 -12 -6
-13 -5 -2 6 6 7 12 21 12 32 0 10 5 15 10 12 6 -3 10 -1 10 4 0 6 -4 11 -9 11
-10 0 -7 52 3 69 4 6 4 11 -1 11 -10 0 -10 51 -1 66 4 6 1 11 -7 11 -8 0 -11
-5 -8 -11 3 -6 2 -7 -3 -3 -4 4 -9 20 -9 35 0 15 -5 33 -9 41 -6 10 -5 12 2 7
8 -5 10 -2 6 8 -3 9 -10 14 -14 11 -5 -3 -11 -1 -14 4 -4 5 -1 13 5 17 8 5 9
3 4 -7 -7 -12 -5 -12 6 -1 12 11 12 14 0 21 -9 6 -15 33 -17 82 -1 41 -4 83
-7 94 -2 11 1 24 7 28 7 6 5 7 -5 4 -9 -3 -21 -1 -27 5 -8 8 -16 7 -29 -2 -15
-12 -16 -12 -5 0 15 17 16 40 1 40 -5 0 -7 -6 -4 -12 4 -7 0 -5 -8 5 -16 20
-32 23 -21 5 4 -7 -1 -6 -12 3 -10 9 -25 14 -31 12 -10 -4 -13 23 -13 113 0
97 3 121 18 138 12 15 13 17 1 8 -13 -9 -16 -9 -16 3 0 8 7 15 14 15 8 0 11 5
8 10 -3 6 -1 10 5 10 6 0 8 5 3 13 -11 17 -10 266 1 260 5 -4 6 0 1 7 -13 21
-15 81 -2 73 6 -4 7 -1 2 7 -14 22 -15 81 -1 73 8 -5 8 -3 1 8 -6 8 -10 28
-10 44 0 17 -7 36 -15 43 -8 8 -10 11 -4 8 7 -3 15 1 18 10 3 8 2 12 -3 9 -16
-9 -19 6 -22 100 -2 65 -7 93 -18 101 -15 12 -24 44 -12 44 10 0 8 71 -2 87
-4 6 -2 15 3 18 8 5 5 14 -7 28 -10 11 -12 17 -5 13 15 -9 15 -6 -3 37 -8 19
-12 37 -8 40 3 4 -2 18 -11 31 -9 14 -16 29 -16 33 0 4 5 1 10 -7 6 -9 10 -10
10 -3 0 6 -4 15 -10 18 -5 3 -10 19 -10 36 0 16 -5 29 -11 29 -5 0 -7 -5 -3
-12 4 -7 3 -8 -4 -4 -6 4 -9 13 -6 21 4 8 10 12 15 9 5 -3 6 3 2 12 -4 11 -8
13 -11 6 -2 -7 -11 -12 -20 -11 -10 0 -12 3 -5 5 7 3 9 12 6 20 -3 7 -9 12
-13 9 -4 -3 -7 3 -6 13 0 9 -5 16 -12 14 -8 -1 -11 2 -7 8 3 6 10 8 14 6 4 -3
8 2 8 10 0 9 -6 13 -15 9 -12 -4 -13 -3 -2 10 9 11 9 15 1 15 -7 0 -10 11 -8
28 2 15 -1 33 -7 41 -9 12 -8 13 3 6 11 -6 13 -3 9 13 -4 14 -2 19 7 15 10 -3
12 2 8 18 -4 15 -3 20 5 15 9 -5 9 0 2 19 -7 17 -7 24 0 20 6 -3 10 1 10 9 0
9 4 16 9 16 6 0 9 9 8 19 -1 13 -5 17 -12 11 -6 -5 -10 0 -10 15 0 15 4 21 14
17 9 -3 12 -1 7 6 -4 7 -14 12 -23 12 -11 0 -14 7 -11 25 3 13 2 22 -3 20 -4
-3 -18 9 -30 27 -13 17 -18 28 -12 25 7 -4 14 -3 17 2 4 5 -5 8 -19 6 -28 -3
-34 11 -7 18 15 4 15 5 -2 6 -12 1 -16 6 -12 16 3 8 0 15 -6 15 -7 0 -7 4 0
13 6 7 7 18 2 26 -4 8 -6 20 -3 28 4 9 0 11 -13 6 -17 -6 -17 -5 -5 10 9 12
10 17 2 17 -7 0 -9 5 -5 12 4 6 3 8 -2 5 -6 -3 -16 -2 -24 4 -11 6 -11 9 -2 9
9 0 10 5 4 18 -5 9 -8 25 -7 35 3 18 -32 50 -47 41 -7 -5 -12 10 -9 29 2 12
-17 8 -23 -5 -4 -7 -4 -3 -2 10 3 18 2 21 -8 12 -10 -7 -16 -6 -25 3 -6 8 -8
17 -4 20 3 4 1 7 -5 7 -7 0 -12 7 -12 16 0 8 -5 12 -10 9 -6 -4 -8 -11 -5 -16
10 -15 -2 -10 -16 8 -10 11 -10 14 -1 9 6 -4 12 -3 12 2 0 6 -7 12 -15 16 -8
3 -15 0 -15 -7 0 -8 -4 -6 -10 3 -5 8 -10 11 -10 5 0 -5 -7 1 -16 15 -8 14
-13 18 -12 10 2 -8 -2 -15 -7 -15 -5 0 -9 5 -7 12 1 6 -2 14 -7 18 -6 3 -7 13
-4 23 6 15 5 16 -12 2 -17 -14 -18 -14 -5 10 12 22 12 24 -2 12 -14 -11 -19
-8 -38 20 -20 31 -20 31 -1 9 12 -13 21 -18 21 -12 0 7 5 9 12 5 7 -4 8 -3 4
5 -4 6 -11 9 -16 6 -5 -3 -16 5 -24 17 -9 12 -16 17 -16 10 0 -6 -4 -12 -10
-12 -5 0 -10 7 -10 17 0 9 -3 13 -7 10 -3 -4 -15 5 -25 20 -10 16 -18 23 -18
17 0 -5 5 -15 11 -21 8 -8 7 -13 -3 -18 -7 -5 -10 -5 -6 0 9 10 -19 38 -31 30
-5 -3 -13 0 -17 6 -4 8 -3 9 4 5 7 -4 12 -2 12 3 0 6 -5 11 -11 11 -5 0 -7 5
-4 10 4 6 1 9 -7 8 -7 -2 -12 3 -10 10 1 8 -2 11 -7 8 -5 -3 -16 -3 -25 0 -14
5 -14 9 -4 22 11 13 10 14 -9 3 -19 -10 -23 -9 -23 3 0 8 3 16 8 19 4 2 2 3
-5 1 -6 -1 -14 0 -17 4 -13 13 -44 11 -50 -3 -3 -9 -12 -12 -22 -8 -11 4 -15
2 -11 -4 4 -6 0 -13 -8 -17 -8 -3 -17 -1 -20 5 -4 5 -10 7 -15 4 -4 -3 -11 2
-14 11 -4 10 -2 13 6 8 7 -4 8 -3 4 4 -4 7 -14 12 -22 12 -8 0 -14 6 -14 13 0
6 -14 20 -30 29 -17 9 -30 13 -30 7 0 -6 -5 -7 -10 -4 -6 4 -7 11 -3 18 3 6
-11 0 -32 -13 -22 -14 -35 -18 -30 -9 13 20 15 40 4 33 -5 -3 -7 -10 -3 -15 3
-6 0 -10 -7 -8 -26 3 -40 -1 -34 -10 3 -5 1 -12 -4 -16 -6 -3 -15 4 -21 16
-10 17 -9 20 2 13 10 -6 9 -3 -2 10 -13 16 -15 16 -20 2 -5 -15 -7 -15 -25 -1
-11 9 -14 13 -6 9 10 -5 12 -3 7 5 -4 7 -17 11 -29 9 -12 -2 -22 2 -22 7 0 6
-7 21 -14 34 -11 19 -11 22 1 16 11 -7 11 -5 0 6 -11 12 -14 12 -22 -1 -5 -8
-10 -10 -10 -4 0 5 6 16 13 23 10 11 9 13 -4 8 -22 -7 -60 28 -52 49 5 13 1
15 -18 10 -13 -3 -18 -3 -11 0 6 3 12 10 12 15 0 6 -5 7 -12 3 -8 -5 -9 -2 -5
9 4 11 1 17 -7 17 -7 0 -26 10 -42 22 -15 13 -24 16 -19 9z m649 -329 c3 -5
-1 -9 -9 -9 -8 0 -12 4 -9 9 3 4 7 8 9 8 2 0 6 -4 9 -8z m80 -78 c5 -14 4 -15
-9 -4 -17 14 -19 20 -6 20 5 0 12 -7 15 -16z m-2364 -84 c0 -5 -2 -10 -4 -10
-3 0 -8 5 -11 10 -3 6 -1 10 4 10 6 0 11 -4 11 -10z m2825 -280 c3 -6 -1 -7
-9 -4 -18 7 -21 14 -7 14 6 0 13 -4 16 -10z m-3491 -698 c2 -4 -5 -9 -17 -9
-17 -2 -19 0 -7 7 18 12 18 12 24 2z m-94 -1208 c0 -8 -19 -13 -24 -6 -3 5 1
9 9 9 8 0 15 -2 15 -3z m3991 -401 c13 -16 12 -17 -3 -4 -10 7 -18 15 -18 17
0 8 8 3 21 -13z m-151 -1163 c0 -5 -2 -10 -4 -10 -3 0 -8 5 -11 10 -3 6 -1 10
4 10 6 0 11 -4 11 -10z m-190 -120 c0 -5 -5 -10 -11 -10 -5 0 -7 5 -4 10 3 6
8 10 11 10 2 0 4 -4 4 -10z m-213 -646 c-3 -3 -12 -4 -19 -1 -8 3 -5 6 6 6 11
1 17 -2 13 -5z m-67 -628 c0 -2 -8 -10 -17 -17 -16 -13 -17 -12 -4 4 13 16 21
21 21 13z m-3890 -900 c0 -3 -4 -8 -10 -11 -5 -3 -10 -1 -10 4 0 6 5 11 10 11
6 0 10 -2 10 -4z m5355 -76 c3 -5 1 -10 -4 -10 -6 0 -11 5 -11 10 0 6 2 10 4
10 3 0 8 -4 11 -10z m270 -130 c3 -5 1 -10 -4 -10 -6 0 -11 5 -11 10 0 6 2 10
4 10 3 0 8 -4 11 -10z m-6365 -98 c0 -5 -7 -9 -15 -9 -8 0 -12 4 -9 9 3 4 9 8
15 8 5 0 9 -4 9 -8z m6900 -152 c0 -5 -2 -10 -4 -10 -3 0 -8 5 -11 10 -3 6 -1
10 4 10 6 0 11 -4 11 -10z m188 -105 c-3 -3 -9 2 -12 12 -6 14 -5 15 5 6 7 -7
10 -15 7 -18z m-8443 -425 c-3 -5 -12 -10 -18 -10 -7 0 -6 4 3 10 19 12 23 12
15 0z m9212 -27 c-4 -3 -2 -12 5 -20 6 -7 8 -16 4 -20 -3 -3 -6 -1 -6 6 0 7
-4 10 -9 7 -5 -4 -8 2 -6 11 5 24 4 23 12 23 3 0 3 -3 0 -7z m-9536 -176 c-10
-9 -11 -8 -5 6 3 10 9 15 12 12 3 -3 0 -11 -7 -18z m9774 -157 c3 -5 1 -10 -4
-10 -6 0 -11 5 -11 10 0 6 2 10 4 10 3 0 8 -4 11 -10z m-10121 -188 c3 -5 -1
-9 -9 -9 -8 0 -12 4 -9 9 3 4 7 8 9 8 2 0 6 -4 9 -8z m-53 -105 c-10 -9 -11
-8 -5 6 3 10 9 15 12 12 3 -3 0 -11 -7 -18z m-77 -205 c3 -5 -1 -9 -9 -9 -8 0
-12 4 -9 9 3 4 7 8 9 8 2 0 6 -4 9 -8z m10643 -268 c-3 -3 -12 -4 -19 -1 -8 3
-5 6 6 6 11 1 17 -2 13 -5z m-10767 -188 c0 -3 -4 -8 -10 -11 -5 -3 -10 -1
-10 4 0 6 5 11 10 11 6 0 10 -2 10 -4z m10855 -75 c3 -5 2 -12 -3 -15 -5 -3
-9 1 -9 9 0 17 3 19 12 6z m81 -257 c0 -12 -4 -20 -8 -18 -4 3 -8 -3 -8 -13 0
-14 -2 -15 -9 -4 -5 7 -6 22 -3 34 4 15 2 18 -9 12 -11 -7 -12 -6 -2 7 7 8 9
18 5 23 -4 4 2 2 14 -5 11 -7 20 -23 20 -36z m-11226 -894 c0 -5 -5 -10 -11
-10 -5 0 -7 5 -4 10 3 6 8 10 11 10 2 0 4 -4 4 -10z m-185 -939 c3 -5 2 -12
-3 -15 -5 -3 -9 1 -9 9 0 17 3 19 12 6z"/>
<path d="M6550 11106 c0 -2 7 -7 16 -10 8 -3 12 -2 9 4 -6 10 -25 14 -25 6z"/>
<path d="M6637 11026 c-3 -8 3 -22 14 -32 10 -9 19 -12 19 -7 0 6 -7 13 -15
17 -8 3 -12 12 -9 21 3 8 4 15 1 15 -3 0 -7 -6 -10 -14z"/>
<path d="M5930 10954 c0 -6 9 -19 19 -28 14 -13 21 -14 27 -5 4 7 3 10 -4 5
-6 -3 -18 4 -26 16 -9 12 -16 18 -16 12z"/>
<path d="M6715 10920 c3 -5 8 -10 11 -10 2 0 4 5 4 10 0 6 -5 10 -11 10 -5 0
-7 -4 -4 -10z"/>
<path d="M5193 10853 c7 -11 -19 -33 -29 -25 -4 4 -4 1 0 -6 6 -11 12 -10 27
4 16 14 18 34 3 34 -3 0 -3 -3 -1 -7z"/>
<path d="M5016 10705 c-3 -9 -10 -13 -16 -10 -5 3 -10 1 -10 -4 0 -6 4 -11 9
-11 12 0 35 29 29 36 -3 3 -8 -2 -12 -11z"/>
<path d="M7615 10431 c-3 -5 -2 -12 3 -15 5 -3 9 1 9 9 0 17 -3 19 -12 6z"/>
<path d="M4400 10076 c0 -8 4 -17 9 -20 5 -4 7 3 4 14 -6 23 -13 26 -13 6z"/>
<path d="M7965 9170 c4 -6 11 -8 16 -5 14 9 11 15 -7 15 -8 0 -12 -5 -9 -10z"/>
<path d="M4035 7990 c-3 -5 -1 -10 4 -10 6 0 11 5 11 10 0 6 -2 10 -4 10 -3 0
-8 -4 -11 -10z"/>
<path d="M8036 6942 c-3 -4 4 -9 15 -9 23 -2 25 3 4 10 -8 4 -16 3 -19 -1z"/>
<path d="M7583 5325 c0 -8 4 -12 9 -9 5 3 6 10 3 15 -9 13 -12 11 -12 -6z"/>
<path d="M4350 5129 c0 -5 5 -7 10 -4 6 3 10 8 10 11 0 2 -4 4 -10 4 -5 0 -10
-5 -10 -11z"/>
<path d="M4110 4769 c0 -5 5 -7 10 -4 6 3 10 8 10 11 0 2 -4 4 -10 4 -5 0 -10
-5 -10 -11z"/>
<path d="M3790 4669 c0 -5 5 -7 10 -4 6 3 10 8 10 11 0 2 -4 4 -10 4 -5 0 -10
-5 -10 -11z"/>
<path d="M3736 4643 c-6 -14 -5 -15 5 -6 7 7 10 15 7 18 -3 3 -9 -2 -12 -12z"/>
<path d="M1870 3830 c0 -5 5 -10 11 -10 5 0 7 5 4 10 -3 6 -8 10 -11 10 -2 0
-4 -4 -4 -10z"/>
<path d="M10820 3491 c0 -6 4 -13 10 -16 6 -3 7 1 4 9 -7 18 -14 21 -14 7z"/>
<path d="M10865 3440 c-8 -13 4 -32 15 -25 4 3 11 -2 14 -11 4 -9 9 -14 13
-11 9 10 -18 38 -30 30 -6 -4 -8 0 -4 10 7 19 2 23 -8 7z"/>
<path d="M940 3232 c0 -6 -7 -18 -16 -26 -8 -9 -11 -16 -5 -16 13 0 35 39 27
48 -3 3 -6 0 -6 -6z"/>
<path d="M11082 3071 c-11 -7 -11 -9 0 -14 9 -3 15 1 15 9 0 8 -1 14 -1 14 -1
0 -7 -4 -14 -9z"/>
<path d="M750 2870 c-6 -11 -8 -20 -6 -20 3 0 10 9 16 20 6 11 8 20 6 20 -3 0
-10 -9 -16 -20z"/>
</g>
</svg>
